<svg width="238" height="34" viewBox="0 0 238 34" fill="none" xmlns="http://www.w3.org/2000/svg">
<path d="M31.2108 12.0192V4.7019L25.5418 2.63603L20.5736 4.43953L15.6054 2.63603L10.6372 4.43953L5.66908 2.63603L0 4.7019V12.0192L3.6179 13.3393L0 14.6573V21.9746L3.6179 23.2947L0 24.6148V31.9321L5.66908 33.9979L10.6372 32.1944L15.6054 33.9979L20.5736 32.1944L25.5418 33.9979L31.2108 31.9321V24.6148L27.5929 23.2967L31.2108 21.9767V14.6594L27.5929 13.3413L31.2108 12.0213V12.0192ZM20.5736 12.2754L23.4968 13.3393L20.5736 14.4032L17.6504 13.3393L20.5736 12.2754ZM15.6054 3.38387L20.5736 5.18738L15.6054 6.99087L10.6372 5.18738L15.6054 3.38387ZM10.6372 12.2754L13.5604 13.3393L10.6372 14.4032L7.71407 13.3393L10.6372 12.2754ZM0.700904 5.19564L5.66908 3.39214L10.6352 5.19564L5.66908 6.99914L0.700904 5.19564ZM0.700904 21.485V15.1531L5.66908 13.3496L10.6372 15.1531L15.6054 13.3496L20.5736 15.1531L15.6054 16.9566L10.6372 15.1531V21.485L5.66908 19.6815L0.700904 21.485ZM20.5736 22.2411L23.4968 23.305L20.5736 24.3689L17.6504 23.305L20.5736 22.2411ZM13.5542 23.2967L10.6311 24.3607L7.70788 23.2967L10.6372 22.2432L13.5542 23.2967ZM10.6311 31.4383L5.66495 29.6348L0.696781 31.4383V25.1085L5.66495 23.305L10.6331 25.1085V31.4383H10.6311ZM15.6013 26.9327L10.6331 25.1292L15.6013 23.3257L20.5695 25.1292L15.6013 26.9327ZM30.5038 25.1292V31.461L25.5376 29.6575L20.5695 31.461V25.1085L25.5376 23.305L30.5038 25.1292ZM30.5038 15.1717V21.5036L25.5376 19.7001L20.5695 21.5036V15.151L25.5376 13.3475L30.5038 15.1717ZM25.5418 7.0074L20.5736 5.2039L25.5418 3.4004L30.5099 5.2039L25.5418 7.0074Z" fill="white" fill-opacity="0.5"/>
<path d="M43.013 3.40662H52.3722V5.56338H48.847V14.0272H46.5196V5.56338H43.0068L43.011 3.40662H43.013Z" fill="white" fill-opacity="0.5"/>
<path d="M59.6568 3.25166C62.8645 3.25166 65.2476 5.58402 65.2476 8.71588C65.2476 11.8477 62.8624 14.1801 59.6568 14.1801C56.4512 14.1801 54.0537 11.8477 54.0537 8.71588C54.0537 5.58402 56.4347 3.25166 59.6568 3.25166ZM62.848 8.71588C62.8398 8.08372 62.646 7.46603 62.2893 6.94543C61.9327 6.42277 61.4297 6.01786 60.8442 5.78235C60.2588 5.54684 59.6156 5.48899 58.9992 5.61708C58.3808 5.74516 57.8139 6.05504 57.3727 6.5054C56.9295 6.95576 56.6285 7.528 56.5089 8.14983C56.3894 8.77165 56.4553 9.41414 56.7007 9.99671C56.9439 10.5793 57.3562 11.0772 57.8819 11.4284C58.4076 11.7775 59.026 11.9634 59.6568 11.9614C60.0815 11.9655 60.502 11.8828 60.8937 11.7217C61.2854 11.5585 61.64 11.3189 61.9389 11.0172C62.2378 10.7156 62.4707 10.3541 62.6274 9.95953C62.7841 9.56495 62.8583 9.14144 62.8501 8.71794L62.848 8.71588Z" fill="white" fill-opacity="0.5"/>
<path d="M68.5343 3.40662H70.9916L74.125 7.12517L77.2544 3.40662H79.6807V14.0252H77.4193V6.32981L74.123 10.3562L70.8081 6.3608V14.0272H68.5322V3.40662H68.5343Z" fill="white" fill-opacity="0.5"/>
<path d="M88.464 5.47041C87.6044 5.47041 86.7818 5.81128 86.1737 6.42071C85.5656 7.03014 85.2254 7.85442 85.2254 8.71588C85.2254 9.57735 85.5656 10.4016 86.1737 11.0111C86.7818 11.6205 87.6044 11.9614 88.464 11.9614C89.0206 11.9634 89.571 11.8271 90.0617 11.5626C90.5523 11.2982 90.9708 10.914 91.2759 10.4471L92.9395 11.8891C92.4468 12.6204 91.7747 13.2153 90.9893 13.6161C90.2039 14.0169 89.3298 14.2111 88.4496 14.1822C85.2893 14.1822 82.832 11.9944 82.832 8.71795C82.832 5.44149 85.4872 3.25374 88.4351 3.25374C90.9398 3.25374 92.3623 4.58622 92.9415 5.55098L91.2779 6.98882C90.9728 6.52194 90.5543 6.13769 90.0637 5.87325C89.5731 5.60882 89.0227 5.47041 88.4661 5.47454L88.464 5.47041Z" fill="white" fill-opacity="0.5"/>
<path d="M95.9209 14.0272V3.40662H98.2483V14.0252H95.9209V14.0272ZM102.089 3.40662H104.668L100.957 8.02589L105.342 14.0252H102.594L98.2545 8.13538L102.089 3.40662Z" fill="white" fill-opacity="0.5"/>
<path d="M110.32 10.4905L115.268 3.40662H117.595V14.0252H115.288V6.89586L110.324 14.0252H107.999V3.40662H110.306L110.322 10.4905H110.32Z" fill="white" fill-opacity="0.5"/>
<path d="M123.93 10.4905L128.878 3.40661H131.203V14.0252H128.901V6.89586L123.937 14.0252H121.611V3.40868H123.918L123.93 10.4925V10.4905ZM125.454 0C125.442 0.134281 125.454 0.268562 125.495 0.396646C125.536 0.52473 125.602 0.642484 125.689 0.745777C125.776 0.847004 125.883 0.929639 126.004 0.989549C126.124 1.04946 126.256 1.08251 126.39 1.08871C126.524 1.08045 126.654 1.04533 126.775 0.987483C126.895 0.927573 127.004 0.844939 127.091 0.743711C127.179 0.642484 127.245 0.52473 127.289 0.396646C127.33 0.268562 127.346 0.134281 127.336 0H129.031C129.031 1.60931 127.886 2.58853 126.39 2.58853C124.893 2.58853 123.731 1.60931 123.731 0H125.456H125.454Z" fill="white" fill-opacity="0.5"/>
<path d="M53.8377 33.0662H51.5103V24.6024H46.637V33.0662H44.3096V22.4456H53.8357V33.0662H53.8377Z" fill="white" fill-opacity="0.5"/>
<path d="M62.4859 22.2928C65.6915 22.2928 68.0725 24.6251 68.0725 27.757C68.0725 30.8888 65.6915 33.2191 62.4859 33.2191C59.2803 33.2191 56.8828 30.8868 56.8828 27.757C56.8828 24.6272 59.2783 22.2928 62.4859 22.2928ZM65.6771 27.7549C65.6689 27.1227 65.4751 26.5051 65.1184 25.9845C64.7618 25.4618 64.2588 25.0569 63.6733 24.8214C63.0879 24.5838 62.4447 24.528 61.8263 24.6561C61.2078 24.7842 60.6409 25.0941 60.1977 25.5444C59.7545 25.9948 59.4535 26.567 59.336 27.1889C59.2164 27.8107 59.2824 28.4532 59.5277 29.0357C59.773 29.6183 60.1832 30.1162 60.7089 30.4674C61.2346 30.8165 61.853 31.0024 62.4839 31.0004C62.9085 31.0066 63.3311 30.926 63.7249 30.7649C64.1186 30.6037 64.4753 30.3641 64.7762 30.0625C65.0772 29.7609 65.3102 29.3993 65.4689 29.0027C65.6256 28.606 65.7018 28.1825 65.6915 27.757H65.675L65.6771 27.7549Z" fill="white" fill-opacity="0.5"/>
<path d="M69.8018 33.1447V31.0004H70.3996C71.3293 31.0004 71.8035 30.5562 71.8035 29.3167V22.4477H80.0514V33.0683H77.724V24.59H74.0299V29.4696C74.0299 31.6759 73.0671 33.1447 70.6573 33.1447H69.8038H69.8018Z" fill="white" fill-opacity="0.5"/>
<path d="M86.3885 29.5315L91.3361 22.4477H93.6635V33.0683H91.3608V25.939L86.3968 33.0683H84.0693V22.4477H86.3968L86.3885 29.5315Z" fill="white" fill-opacity="0.5"/>
<path d="M96.7005 22.4477H106.06V24.6045H102.53V33.0683H100.203V24.6045H96.6943L96.6985 22.4477H96.7005Z" fill="white" fill-opacity="0.5"/>
<path d="M109.1 22.4477H117.133V24.5879H111.437V26.6559H115.451V28.73H111.437V30.9363H117.191V33.0766H109.098V22.4456L109.1 22.4477Z" fill="white" fill-opacity="0.5"/>
<path d="M125.091 26.0568L127.779 22.4477H130.435L126.526 27.6826L130.606 33.0683H127.748L124.895 29.3642L122.053 33.0683H119.381L123.461 27.6826L119.533 22.4477H122.36L125.093 26.0568H125.091Z" fill="white" fill-opacity="0.5"/>
<line x1="142.329" y1="2.42857" x2="142.329" y2="34" stroke="white" stroke-opacity="0.5" stroke-width="1.5"/>
</svg>
