<svg width="237" height="31" viewBox="0 0 237 31" fill="none" xmlns="http://www.w3.org/2000/svg">
<path d="M28.0005 13.454L23.3532 11.7627L18.704 13.454L14.0569 11.7627L9.40766 13.454L4.76047 11.7627L0.113281 13.454V19.3658L4.76047 21.059L9.40766 19.3658L14.0569 21.059L18.704 19.3658L23.3532 21.059L28.0005 19.3658V13.454Z" fill="#28BE46"/>
<path d="M28.0005 4.15767L23.3532 2.46631L18.704 4.15767L14.0569 2.46631L9.40766 4.15767L4.76047 2.46631L0.113281 4.15767V10.0714L4.76047 11.7627L9.40766 10.0714L14.0569 11.7627L18.704 10.0714L23.3532 11.7627L28.0005 10.0714V4.15767Z" fill="white"/>
<path d="M9.40381 4.15767L4.75461 5.85106L0.107422 4.15767L4.75461 2.46631L9.40381 4.15767Z" fill="#28BE46"/>
<path d="M18.6987 4.15767L14.0515 5.85106L9.4043 4.15767L14.0515 2.46631L18.6987 4.15767Z" fill="#28BE46"/>
<path d="M27.9996 4.15767L23.3523 5.85106L18.7031 4.15767L23.3523 2.46631L27.9996 4.15767Z" fill="#28BE46"/>
<path d="M0.107422 19.3667L4.75461 17.6753L9.40381 19.3667L4.75461 21.0601L0.107422 19.3667Z" fill="white"/>
<path d="M18.7031 19.3667L23.3502 17.6753L27.9996 19.3667L23.3502 21.0601L18.7031 19.3667Z" fill="white"/>
<path d="M18.6987 13.4541L14.0515 15.1454L9.4043 13.4541V19.3658L14.0515 21.0592L18.6987 19.3658V13.4541Z" fill="white"/>
<path d="M28.0005 22.7509L23.3532 21.0596L18.704 22.7509L14.0569 21.0596L9.40766 22.7509L4.76047 21.0596L0.113281 22.7509V28.6625L4.76047 30.3538L9.40766 28.6625L14.0569 30.3538L18.704 28.6625L23.3532 30.3538L28.0005 28.6625V22.7509Z" fill="#28BE46"/>
<path d="M0.107422 28.663L4.75461 26.9717L9.40381 28.663L4.75461 30.3544L0.107422 28.663Z" fill="white"/>
<path d="M18.7031 28.663L23.3502 26.9717L27.9996 28.663L23.3502 30.3544L18.7031 28.663Z" fill="white"/>
<path d="M18.6987 22.751L14.0515 24.4423L9.4043 22.751V28.6625L14.0515 30.3541L18.6987 28.6625V22.751Z" fill="white"/>
<path d="M37.7457 3.05957H46.1661V4.99553H42.9954V12.5928H40.9025V4.99553H37.7422L37.7457 3.05957Z" fill="white"/>
<path d="M52.718 2.91943C55.6028 2.91943 57.7481 5.01234 57.7481 7.82383C57.7481 10.6353 55.6028 12.7282 52.718 12.7282C49.8335 12.7282 47.6777 10.6353 47.6777 7.82383C47.6777 5.01234 49.8194 2.91943 52.718 2.91943ZM55.5924 7.82383C55.5863 7.25506 55.4117 6.70085 55.0911 6.23102C54.7704 5.76121 54.3179 5.39681 53.7905 5.18374C53.2631 4.97069 52.6844 4.9185 52.1275 5.03376C51.5704 5.14902 51.0601 5.42657 50.6604 5.83144C50.2609 6.23631 49.9902 6.75037 49.8824 7.30885C49.7745 7.86734 49.8344 8.44527 50.0543 8.9698C50.2745 9.49432 50.6448 9.942 51.1188 10.2564C51.5929 10.5708 52.1492 10.7378 52.718 10.7365C53.0999 10.7403 53.4786 10.6673 53.8315 10.5218C54.1844 10.3763 54.5047 10.1613 54.7729 9.88956C55.041 9.61779 55.2517 9.29486 55.3925 8.93999C55.5334 8.58511 55.6013 8.20552 55.5924 7.82383Z" fill="white"/>
<path d="M60.7026 3.05957H62.9141L65.7326 6.39779L68.5477 3.05957H70.7312V12.5928H68.6975V5.68269L65.7326 9.29648L62.7466 5.71061V12.5928H60.6992L60.7026 3.05957Z" fill="white"/>
<path d="M78.6191 4.91468C78.2283 4.90115 77.8389 4.96643 77.4739 5.10663C77.1089 5.24681 76.7758 5.45905 76.4947 5.73068C76.2135 6.00234 75.9899 6.32781 75.8371 6.6877C75.6843 7.04761 75.6056 7.4346 75.6056 7.82558C75.6056 8.21655 75.6843 8.60352 75.8371 8.96343C75.9899 9.32335 76.2135 9.64882 76.4947 9.92045C76.7758 10.1921 77.1089 10.4043 77.4739 10.5445C77.8389 10.6847 78.2283 10.75 78.6191 10.7365C79.1205 10.7386 79.6148 10.6153 80.0563 10.3777C80.4981 10.1401 80.8733 9.79575 81.1479 9.37607L82.6444 10.6702C82.2006 11.3273 81.5971 11.8608 80.8905 12.2208C80.1839 12.5808 79.3976 12.7554 78.6052 12.7282C75.7621 12.7282 73.5508 10.7644 73.5508 7.82383C73.5508 4.88329 75.9402 2.91943 78.5911 2.91943C80.8445 2.91943 82.1247 4.11588 82.6444 4.98096L81.1479 6.27158C80.8733 5.85232 80.4977 5.50851 80.0562 5.2715C79.6144 5.03449 79.1204 4.91183 78.6191 4.91468Z" fill="white"/>
<path d="M85.3398 12.5928V3.05957H87.4327V12.5928H85.3398ZM90.8896 3.05957H93.2092L89.8711 7.20704L93.816 12.5928H91.3501L87.4466 7.29077L90.8896 3.05957Z" fill="white"/>
<path d="M98.2959 9.41857L102.747 3.05957H104.84V12.5928H102.764V6.19199L98.3272 12.5928H96.2344V3.05957H98.3272L98.2959 9.41857Z" fill="white"/>
<path d="M110.537 9.41814L114.988 3.05915H117.081V12.5924H115.009V6.19155L110.544 12.5924H108.451V3.05915H110.537V9.41814ZM111.912 0C111.899 0.119553 111.911 0.240397 111.947 0.355117C111.983 0.469837 112.042 0.576014 112.12 0.66714C112.199 0.758267 112.295 0.832421 112.403 0.885051C112.511 0.937682 112.629 0.967683 112.749 0.973209C112.869 0.966141 112.986 0.935239 113.094 0.882307C113.202 0.829372 113.299 0.755467 113.378 0.664889C113.457 0.574313 113.518 0.468878 113.556 0.354727C113.594 0.240578 113.609 0.119992 113.6 0H115.124C115.124 1.44062 114.078 2.31965 112.749 2.31965C111.42 2.31965 110.356 1.44062 110.356 0H111.912Z" fill="white"/>
<path d="M47.4819 29.6856H45.3889V22.0883H41.0147V29.6856H38.9219V20.1523H47.4923L47.4819 29.6856Z" fill="white"/>
<path d="M55.2768 20.0117C58.1615 20.0117 60.3067 22.1048 60.3067 24.9162C60.3067 27.7277 58.1615 29.8206 55.2768 29.8206C52.3921 29.8206 50.2363 27.7277 50.2363 24.9162C50.2363 22.1048 52.378 20.0117 55.2768 20.0117ZM58.1475 24.9162C58.1406 24.3482 57.9659 23.795 57.6452 23.3263C57.3244 22.8575 56.8723 22.494 56.3454 22.2819C55.8187 22.0695 55.2408 22.018 54.6846 22.1335C54.1286 22.249 53.619 22.5265 53.2205 22.931C52.8218 23.3354 52.5515 23.849 52.4442 24.4066C52.3368 24.9643 52.3967 25.5414 52.6166 26.0651C52.8364 26.5889 53.2064 27.0356 53.6797 27.3496C54.1531 27.6634 54.7088 27.8301 55.2768 27.8288C55.6583 27.8327 56.0368 27.7596 56.3897 27.6142C56.7424 27.4687 57.0624 27.2535 57.3302 26.9817C57.5981 26.71 57.8084 26.3869 57.949 26.0321C58.0894 25.6772 58.1569 25.2977 58.1475 24.9162Z" fill="white"/>
<path d="M61.8457 29.7554V27.8474H62.4004C63.2375 27.8474 63.6632 27.4496 63.6632 26.3369V20.1523H71.0825V29.6856H68.9896V22.0744H65.6653V26.452C65.6653 28.4299 64.8004 29.7485 62.6305 29.7485L61.8457 29.7554Z" fill="white"/>
<path d="M76.7651 26.5114L81.2336 20.1523H83.3265V29.6856H81.2336V23.2849L76.7686 29.6856H74.6758V20.1523H76.7512L76.7651 26.5114Z" fill="white"/>
<path d="M86.0422 20.1523H94.4626V22.0883H91.2883V29.6856H89.1955V22.0883H86.0352L86.0422 20.1523Z" fill="white"/>
<path d="M97.1953 20.1523H104.423V22.0744H99.2987V23.9301H102.909V25.7859H99.2987V27.7636H104.475V29.6856H97.1953V20.1523Z" fill="white"/>
<path d="M111.583 23.393L114.001 20.1523H116.39L112.874 24.851L116.544 29.6856H113.973L111.405 26.3614L108.849 29.6856H106.445L110.115 24.851L106.581 20.1523H109.142L111.583 23.393Z" fill="white"/>
<line x1="133.5" y1="2.58496" x2="133.5" y2="30.585" stroke="#CDD0DA"/>
<rect x="149.5" y="3.08496" width="86.8889" height="27" rx="3.16013" stroke="url(#paint0_linear_6372_14964)"/>
<path d="M219.624 15.8115H223.211V17.2939H219.624V20.9922H217.988V17.2939H214.379V15.8115H217.988V12.1602H219.624V15.8115Z" fill="url(#paint1_linear_6372_14964)"/>
<path d="M165.678 17.7529L169.605 11.9922H171.451V20.6455H169.631V14.8477L165.69 20.6455H163.857V11.9922H165.678V17.7529Z" fill="url(#paint2_linear_6372_14964)"/>
<path d="M175.115 18.8877H177.696V11.9922H179.542V18.8877H182.123V11.9922H183.969V20.6455H173.271V11.9922H175.115V18.8877Z" fill="url(#paint3_linear_6372_14964)"/>
<path d="M187.608 17.7529L191.536 11.9922H193.381V20.6455H191.561V14.8477L187.621 20.6455H185.788V11.9922H187.608V17.7529Z" fill="url(#paint4_linear_6372_14964)"/>
<path d="M202.033 13.75H199.24V20.6455H197.395V13.75H194.614V11.9922H202.033V13.75Z" fill="url(#paint5_linear_6372_14964)"/>
<path fill-rule="evenodd" clip-rule="evenodd" d="M206.628 11.9922C208.423 11.9923 209.72 13.0022 209.72 14.835C209.72 16.6553 208.411 17.6532 206.628 17.6533H205.119V20.6455H203.273V11.9922H206.628ZM205.119 15.957H206.553C207.351 15.957 207.824 15.5083 207.824 14.835C207.824 14.1742 207.351 13.75 206.553 13.75H205.119V15.957Z" fill="url(#paint6_linear_6372_14964)"/>
<defs>
<linearGradient id="paint0_linear_6372_14964" x1="149" y1="30.585" x2="165.197" y2="-20.255" gradientUnits="userSpaceOnUse">
<stop stop-color="#27FF6F"/>
<stop offset="0.3" stop-color="#29EDB8"/>
<stop offset="0.55" stop-color="#00C7E6"/>
<stop offset="0.75" stop-color="#0096FF"/>
<stop offset="1" stop-color="#6573FF"/>
</linearGradient>
<linearGradient id="paint1_linear_6372_14964" x1="163.857" y1="20.9922" x2="166.525" y2="3.39676" gradientUnits="userSpaceOnUse">
<stop stop-color="#27FF6F"/>
<stop offset="0.3" stop-color="#29EDB8"/>
<stop offset="0.55" stop-color="#00C7E6"/>
<stop offset="0.75" stop-color="#0096FF"/>
<stop offset="1" stop-color="#6573FF"/>
</linearGradient>
<linearGradient id="paint2_linear_6372_14964" x1="163.857" y1="20.9922" x2="166.525" y2="3.39676" gradientUnits="userSpaceOnUse">
<stop stop-color="#27FF6F"/>
<stop offset="0.3" stop-color="#29EDB8"/>
<stop offset="0.55" stop-color="#00C7E6"/>
<stop offset="0.75" stop-color="#0096FF"/>
<stop offset="1" stop-color="#6573FF"/>
</linearGradient>
<linearGradient id="paint3_linear_6372_14964" x1="163.857" y1="20.9922" x2="166.525" y2="3.39676" gradientUnits="userSpaceOnUse">
<stop stop-color="#27FF6F"/>
<stop offset="0.3" stop-color="#29EDB8"/>
<stop offset="0.55" stop-color="#00C7E6"/>
<stop offset="0.75" stop-color="#0096FF"/>
<stop offset="1" stop-color="#6573FF"/>
</linearGradient>
<linearGradient id="paint4_linear_6372_14964" x1="163.857" y1="20.9922" x2="166.525" y2="3.39676" gradientUnits="userSpaceOnUse">
<stop stop-color="#27FF6F"/>
<stop offset="0.3" stop-color="#29EDB8"/>
<stop offset="0.55" stop-color="#00C7E6"/>
<stop offset="0.75" stop-color="#0096FF"/>
<stop offset="1" stop-color="#6573FF"/>
</linearGradient>
<linearGradient id="paint5_linear_6372_14964" x1="163.857" y1="20.9922" x2="166.525" y2="3.39676" gradientUnits="userSpaceOnUse">
<stop stop-color="#27FF6F"/>
<stop offset="0.3" stop-color="#29EDB8"/>
<stop offset="0.55" stop-color="#00C7E6"/>
<stop offset="0.75" stop-color="#0096FF"/>
<stop offset="1" stop-color="#6573FF"/>
</linearGradient>
<linearGradient id="paint6_linear_6372_14964" x1="163.857" y1="20.9922" x2="166.525" y2="3.39676" gradientUnits="userSpaceOnUse">
<stop stop-color="#27FF6F"/>
<stop offset="0.3" stop-color="#29EDB8"/>
<stop offset="0.55" stop-color="#00C7E6"/>
<stop offset="0.75" stop-color="#0096FF"/>
<stop offset="1" stop-color="#6573FF"/>
</linearGradient>
</defs>
</svg>
