<svg width="8" height="13" viewBox="0 0 8 13" fill="none" xmlns="http://www.w3.org/2000/svg">
<path d="M7.99903 11.128L7.81825 10.9717C7.02551 10.288 6.2373 9.62607 5.46318 8.97608C4.69038 8.32722 3.93164 7.69027 3.19415 7.05377C3.05484 6.90248 2.92057 6.76631 2.80937 6.61823C2.69419 6.46483 2.64309 6.34579 2.64309 6.25L2.65275 6.17378C2.67226 6.09237 2.72251 5.99617 2.80937 5.88078C2.92072 5.73287 3.0556 5.59723 3.19512 5.44623C4.74342 4.11105 6.39414 2.75081 8 1.36898L6.96942 0L0.570314 5.09681C-0.189948 5.7031 -0.190261 6.7971 0.570314 7.40319L6.96942 12.5L7.99903 11.128Z" fill="currentColor"/>
</svg>
