<svg width="50" height="50" viewBox="0 0 50 50" fill="none" xmlns="http://www.w3.org/2000/svg">
<rect x="1" y="1" width="48" height="48" rx="24" stroke="currentColor" stroke-width="2"/>
<path d="M24.9438 33.4102C25.415 33.4103 25.7601 33.5451 26.0425 33.8086L26.1606 33.9297L26.1714 33.9424L26.1909 33.9639C26.5352 34.3207 26.7064 34.7361 26.7065 35.2754C26.7065 35.8169 26.5352 36.2554 26.1772 36.6426L26.1763 36.6436C25.8775 36.967 25.4986 37.1414 24.9438 37.1416C24.398 37.1416 24.0018 36.9709 23.6763 36.6416C23.3453 36.2601 23.1802 35.8222 23.1802 35.2754C23.1803 34.7212 23.3486 34.3005 23.6743 33.9473C24.0071 33.5875 24.4039 33.4102 24.9438 33.4102ZM24.9438 12.8584C26.1535 12.8585 27.1785 13.0192 28.0366 13.3154C28.9068 13.616 29.5975 14.0198 30.1323 14.5107L30.1343 14.5127L30.147 14.5244L30.1597 14.5352C30.7187 15.0346 31.1287 15.6301 31.3989 16.3301L31.4028 16.3398L31.4077 16.3525L31.4126 16.3643C31.7038 17.0482 31.8599 17.8348 31.8599 18.7402C31.8598 19.707 31.7282 20.4452 31.5103 20.9912C31.2644 21.6067 30.9528 22.1336 30.5815 22.5791L30.5806 22.5801C30.2014 23.0385 29.778 23.4536 29.314 23.8252L29.2886 23.8457L29.2671 23.8662C28.7435 24.3075 28.2446 24.7863 27.772 25.3018L27.7407 25.3359L27.729 25.3525C27.2446 25.9156 26.843 26.5446 26.5229 27.2354C26.2857 27.7475 26.1374 28.3173 26.061 28.9307H23.9399C23.9937 28.2753 24.0967 27.7385 24.2437 27.3076L24.2466 27.3037L24.2593 27.2646C24.5183 26.5041 24.8159 25.9035 25.1421 25.4453L25.1431 25.4463C25.4269 25.0544 25.7157 24.7212 26.0073 24.4424L26.3003 24.1816C26.8104 23.7785 27.2759 23.3838 27.6968 22.999L27.6997 22.9951L27.7007 22.9961C28.1967 22.5392 28.6178 22.0309 28.9575 21.4736L28.9595 21.4707L28.9653 21.4609L28.9692 21.4531C29.3198 20.8474 29.4955 20.1595 29.5337 19.4248L29.5415 19.1074C29.5414 17.8937 29.1649 16.8143 28.3169 16.0059C27.4908 15.1711 26.3691 14.8242 25.1196 14.8242C23.7918 14.8244 22.6145 15.2112 21.7271 16.0967L21.6968 16.127L21.6841 16.1416C21.093 16.7656 20.7131 17.5315 20.5073 18.3965H18.1401C18.2351 17.8193 18.3831 17.2828 18.5845 16.7871C18.932 15.9894 19.3964 15.3067 19.9722 14.7275C20.5744 14.1453 21.2776 13.6954 22.0913 13.3779L22.0962 13.377L22.1138 13.3701C22.941 13.0356 23.8801 12.8584 24.9438 12.8584Z" fill="currentColor"/>
</svg>
