<svg width="27" height="27" viewBox="0 0 27 27" fill="none" xmlns="http://www.w3.org/2000/svg">
<path d="M14.3722 11.3223V18.5H12.6053V11.3223H14.3722ZM13.5 7.5C13.7707 7.5 14.0038 7.57494 14.1992 7.72481C14.3997 7.87468 14.5 8.13307 14.5 8.5C14.5 8.86176 14.3997 9.12016 14.1992 9.27519C14.0038 9.42506 13.7707 9.5 13.5 9.5C13.2193 9.5 12.9812 9.42506 12.7857 9.27519C12.5952 9.12016 12.5 8.86176 12.5 8.5C12.5 8.13307 12.5952 7.87468 12.7857 7.72481C12.9812 7.57494 13.2193 7.5 13.5 7.5Z" fill="#9195A1"/>
<path d="M13.5 0C20.9559 1.58136e-07 27 6.04417 27 13.5C27 20.9558 20.9559 27 13.5 27C6.04413 27 1.5814e-07 20.9558 0 13.5C0 6.04417 6.04413 0 13.5 0ZM13.5 1.1254C6.66545 1.1254 1.1254 6.66545 1.1254 13.5C1.1254 20.3345 6.66545 25.8746 13.5 25.8746C20.3345 25.8746 25.8746 20.3345 25.8746 13.5C25.8746 6.66545 20.3345 1.1254 13.5 1.1254Z" fill="#9195A1"/>
</svg>
