<svg width="14" height="14" viewBox="0 0 14 14" fill="none" xmlns="http://www.w3.org/2000/svg">
<path d="M7 0C10.8651 8.59185e-08 14 3.13384 14 7C14 10.8662 10.8651 14 7 14C3.13385 14 8.58933e-08 10.8662 0 7C7.2732e-08 3.13385 3.13385 7.27343e-08 7 0ZM7 1.38306C3.89794 1.38306 1.38306 3.89794 1.38306 7C1.38306 10.1021 3.89794 12.6169 7 12.6169C10.1014 12.6169 12.6169 10.1017 12.6169 7C12.6169 3.89834 10.1014 1.38306 7 1.38306ZM6.71333 3.4409C7.09493 3.44108 7.40486 3.7511 7.40486 4.13332V6.97883L7.54599 7.03616L10.126 8.07876C10.458 8.21285 10.6297 8.57624 10.5318 8.91318L10.5079 8.98022C10.3646 9.33363 9.96286 9.50453 9.60912 9.36215L6.45401 8.08758C6.19267 7.98191 6.02183 7.7282 6.0218 7.44632V4.13332C6.0218 3.7514 6.33146 3.44111 6.71333 3.4409Z" fill="#6573FF"/>
</svg>
