<svg width="15" height="15" viewBox="0 0 15 15" fill="none" xmlns="http://www.w3.org/2000/svg">
<path d="M7.03125 0C10.9136 8.63021e-08 14.0625 3.14783 14.0625 7.03125C14.0625 10.9147 10.9136 14.0625 7.03125 14.0625C3.14784 14.0625 8.62768e-08 10.9147 0 7.03125C7.30567e-08 3.14784 3.14784 7.3059e-08 7.03125 0ZM7.03125 1.38924C3.91534 1.38924 1.38924 3.91534 1.38924 7.03125C1.38924 10.1472 3.91534 12.6733 7.03125 12.6733C10.1465 12.6733 12.6733 10.1468 12.6733 7.03125C12.6733 3.91574 10.1465 1.38924 7.03125 1.38924ZM6.7433 3.45626C7.12661 3.45645 7.43792 3.76784 7.43792 4.15177V7.00999L7.57968 7.06758L10.1712 8.11482C10.5046 8.24952 10.6772 8.61452 10.5788 8.95297L10.5548 9.02031C10.4109 9.37529 10.0073 9.54697 9.65202 9.40394L6.48282 8.12368C6.22031 8.01754 6.04872 7.76271 6.04868 7.47956V4.15177C6.04868 3.76814 6.35972 3.45647 6.7433 3.45626Z" fill="#6573FF"/>
</svg>
