<svg width="14" height="14" viewBox="0 0 14 14" fill="none" xmlns="http://www.w3.org/2000/svg">
<path d="M7.43945 0C8.47767 3.68146e-08 9.2443 0.00026951 9.85059 0.0498047C10.4545 0.0991488 10.8817 0.196221 11.2441 0.380859C11.902 0.716074 12.4372 1.25128 12.7725 1.90918C12.957 2.27158 13.0542 2.69888 13.1035 3.30273C13.153 3.90902 13.1533 4.67567 13.1533 5.71387V7.43945C13.1533 8.47766 13.153 9.2443 13.1035 9.85059C13.0542 10.4545 12.9571 10.8817 12.7725 11.2441C12.4372 11.902 11.902 12.4372 11.2441 12.7725C10.8817 12.9571 10.4545 13.0542 9.85059 13.1035C9.2443 13.153 8.47766 13.1533 7.43945 13.1533H5.71387C4.67567 13.1533 3.90902 13.153 3.30273 13.1035C2.69888 13.0542 2.27158 12.957 1.90918 12.7725C1.25128 12.4372 0.716074 11.902 0.380859 11.2441C0.196221 10.8817 0.0991488 10.4545 0.0498047 9.85059C0.00026951 9.2443 3.68146e-08 8.47767 0 7.43945V5.71387C2.26483e-08 4.67566 0.000278451 3.90902 0.0498047 3.30273C0.0991439 2.69885 0.196257 2.27159 0.380859 1.90918C0.716074 1.25128 1.25128 0.716074 1.90918 0.380859C2.27159 0.196257 2.69885 0.0991439 3.30273 0.0498047C3.90902 0.000278451 4.67566 2.26483e-08 5.71387 0H7.43945ZM5.71387 0.832031C4.66195 0.832031 3.93471 0.832777 3.37012 0.878906C2.81816 0.924018 2.51269 1.00723 2.28711 1.12207C1.78579 1.3775 1.3775 1.78579 1.12207 2.28711C1.00723 2.51269 0.924018 2.81816 0.878906 3.37012C0.832777 3.93471 0.832031 4.66195 0.832031 5.71387V7.43945C0.832031 8.4913 0.832779 9.21864 0.878906 9.7832C0.924028 10.3352 1.00721 10.6406 1.12207 10.8662C1.3775 11.3675 1.78579 11.7758 2.28711 12.0312C2.51269 12.1461 2.8182 12.2293 3.37012 12.2744C3.93471 12.3205 4.66195 12.3213 5.71387 12.3213H7.43945C8.4913 12.3213 9.21864 12.3205 9.7832 12.2744C10.3351 12.2293 10.6406 12.1461 10.8662 12.0312C11.3675 11.7758 11.7758 11.3675 12.0312 10.8662C12.1461 10.6406 12.2293 10.3351 12.2744 9.7832C12.3205 9.21864 12.3213 8.4913 12.3213 7.43945V5.71387C12.3213 4.66195 12.3205 3.93471 12.2744 3.37012C12.2293 2.8182 12.1461 2.51269 12.0312 2.28711C11.7758 1.78579 11.3675 1.3775 10.8662 1.12207C10.6406 1.00721 10.3352 0.924028 9.7832 0.878906C9.21864 0.832779 8.4913 0.832031 7.43945 0.832031H5.71387ZM5.0498 4.43457C5.21229 4.27208 5.47619 4.27208 5.63867 4.43457C5.80093 4.59705 5.80102 4.86004 5.63867 5.02246L4.08496 6.57617L4.22559 6.71777L5.63867 8.13086C5.80097 8.29331 5.80097 8.5563 5.63867 8.71875C5.47619 8.88124 5.21229 8.88124 5.0498 8.71875L3.20215 6.87109C3.12412 6.79306 3.08008 6.68652 3.08008 6.57617C3.08019 6.46597 3.12422 6.36016 3.20215 6.28223L5.0498 4.43457ZM7.51465 4.43457C7.67713 4.27208 7.94005 4.27209 8.10254 4.43457L9.95117 6.28223C10.0291 6.36016 10.0731 6.46597 10.0732 6.57617C10.0732 6.67267 10.0391 6.76583 9.97852 6.83984C9.96986 6.85041 9.96094 6.86133 9.95117 6.87109L8.10254 8.71875C7.94005 8.88117 7.67711 8.88121 7.51465 8.71875C7.35226 8.55628 7.35226 8.29333 7.51465 8.13086L9.06836 6.57617L8.92676 6.43555L7.51465 5.02246C7.35221 4.86002 7.3523 4.59707 7.51465 4.43457Z" fill="white"/>
</svg>
