<svg width="16" height="16" viewBox="0 0 16 16" fill="none" xmlns="http://www.w3.org/2000/svg">
<path d="M11.0668 0.733643C12.3825 0.733658 13.3558 1.02562 13.9984 1.66821C14.641 2.3108 14.933 3.28407 14.933 4.59985V7.39966C14.933 8.61405 14.684 9.53596 14.14 10.176C13.6081 10.8019 12.8085 11.1388 11.7338 11.2336C11.6389 12.3084 11.302 13.108 10.6761 13.6399C10.0361 14.1838 9.11419 14.4329 7.89978 14.4329H5.09998C3.78418 14.4329 2.81093 14.1409 2.16833 13.4983C1.52574 12.8557 1.23376 11.8825 1.23376 10.5667V7.76685C1.23376 6.55285 1.48223 5.63078 2.02576 4.99048C2.55733 4.3645 3.35696 4.02604 4.43103 3.93091C4.52616 2.85684 4.86462 2.05721 5.4906 1.52563C6.1309 0.982107 7.05297 0.733643 8.26697 0.733643H11.0668ZM5.09998 5.09985C4.07258 5.09986 3.41589 5.27515 3.01208 5.67896C2.60828 6.08276 2.43298 6.73943 2.43298 7.76685V10.5667C2.43298 11.5941 2.60828 12.2507 3.01208 12.6545C3.41589 13.0583 4.07258 13.2336 5.09998 13.2336H7.89978C8.92721 13.2336 9.58387 13.0583 9.98767 12.6545C10.3915 12.2507 10.5668 11.5941 10.5668 10.5667V7.76685C10.5668 6.73942 10.3915 6.08275 9.98767 5.67896C9.58387 5.27516 8.92721 5.09985 7.89978 5.09985H5.09998ZM8.26697 1.93286C7.34678 1.93286 6.72428 2.07399 6.31482 2.3938C5.92842 2.69569 5.71549 3.17259 5.63806 3.90063H7.89978C9.2156 3.90063 10.1888 4.19262 10.8314 4.83521C11.474 5.47779 11.766 6.45103 11.766 7.76685V10.0276C12.4939 9.95017 12.9709 9.73789 13.2728 9.35181C13.5927 8.94259 13.7338 8.31996 13.7338 7.39966V4.59985C13.7338 3.57248 13.5585 2.91577 13.1547 2.51196C12.8013 2.15864 12.2543 1.98073 11.4349 1.94165L11.0668 1.93286H8.26697Z" fill="white"/>
</svg>
