<svg width="8" height="8" viewBox="0 0 8 8" fill="none" xmlns="http://www.w3.org/2000/svg">
<path d="M7.38155 8C7.54271 7.99998 7.69755 7.93762 7.81413 7.82609C7.92679 7.71755 7.99301 7.5699 8 7.41362C7.99817 7.33491 7.98162 7.25733 7.95035 7.18507C7.91832 7.11107 7.87212 7.04402 7.81413 6.9881L7.80929 6.98324L4.90956 4.05952L7.79476 1.16009C7.88517 1.04432 7.9313 0.899857 7.92372 0.752775C7.91594 0.602071 7.85275 0.459455 7.74632 0.352748C7.6399 0.246065 7.49763 0.182685 7.34734 0.174891C7.20067 0.167311 7.05654 0.21355 6.9411 0.304186L4.04924 3.19695L1.13317 0.289922L1.11561 0.272015L1.10077 0.251983C1.0491 0.18058 0.982575 0.121212 0.905825 0.0780711C0.829118 0.0349684 0.744044 0.00884628 0.656386 0.00189018C0.56869 -0.00505733 0.480405 0.00719786 0.397866 0.0377045C0.315311 0.0682259 0.240311 0.116456 0.178093 0.178837C0.115879 0.241216 0.0677704 0.316417 0.0373297 0.399185C0.00690783 0.481936 -0.00501649 0.570464 0.00191181 0.658383C0.0088545 0.74626 0.0346052 0.831578 0.0775911 0.908476C0.120619 0.985426 0.179833 1.05213 0.251048 1.10394L0.271027 1.11851L0.288585 1.13641L3.19194 4.06043L0.288282 6.97171C0.175334 7.08595 0.111798 7.24029 0.111798 7.40117C0.111818 7.56063 0.174463 7.71338 0.285558 7.8273C0.40178 7.93701 0.555098 7.99845 0.714811 7.99848C0.875726 7.99848 1.03054 7.93642 1.14709 7.82518L4.04924 4.91876L6.94836 7.82578C7.065 7.93758 7.22018 8 7.38155 8Z" fill="#8F94A3"/>
</svg>
