<svg width="8" height="8" viewBox="0 0 8 8" fill="none" xmlns="http://www.w3.org/2000/svg">
<path d="M3.02646 5.04651L3.73086 4.84332L7.23359 1.28999C7.26704 1.25571 7.28567 1.20965 7.28544 1.16175C7.28522 1.11386 7.26616 1.06797 7.23239 1.03401L6.97839 0.777223C6.96198 0.760358 6.94237 0.746932 6.92071 0.737728C6.89905 0.728524 6.87577 0.723726 6.85224 0.723614C6.82871 0.723502 6.80539 0.728079 6.78364 0.737077C6.7619 0.746076 6.74216 0.759315 6.72559 0.776023L3.23406 4.31815L3.02646 5.04651ZM7.48119 0.268453L7.73519 0.525638C8.08559 0.880417 8.08879 1.45278 7.74159 1.80396L4.10966 5.48848L2.60406 5.92206C2.51214 5.94779 2.41376 5.936 2.33052 5.88928C2.24728 5.84257 2.18598 5.76474 2.16006 5.67287C2.14077 5.60683 2.14049 5.53668 2.15926 5.47049L2.59726 3.93458L6.21759 0.261653C6.30047 0.178201 6.39914 0.112086 6.50785 0.0671652C6.61655 0.0222441 6.73311 -0.00058433 6.85073 1.13645e-05C6.96835 0.000607059 7.08467 0.024615 7.19292 0.0706348C7.30116 0.116655 7.39915 0.184165 7.48119 0.268453ZM2.8736 0.729626C3.072 0.729626 3.23279 0.892416 3.23279 1.0932C3.23311 1.14067 3.22407 1.18773 3.20618 1.2317C3.1883 1.27566 3.16192 1.31568 3.12856 1.34944C3.0952 1.38321 3.05551 1.41007 3.01176 1.42849C2.96801 1.44691 2.92106 1.45652 2.8736 1.45678H1.4368C1.04 1.45678 0.718399 1.78236 0.718399 2.18354V6.54569C0.718399 6.94726 1.04 7.27284 1.4368 7.27284H5.74719C6.14399 7.27284 6.46599 6.94726 6.46599 6.54569V5.09177C6.46599 4.89098 6.62679 4.72819 6.82519 4.72819C7.02359 4.72819 7.18439 4.89098 7.18439 5.09217V6.54569C7.18439 7.34884 6.54079 8 5.74719 8H1.4368C0.643199 8 0 7.34884 0 6.54569V2.18354C0 1.38079 0.643199 0.729626 1.4368 0.729626H2.8736Z" fill="white"/>
</svg>
