<svg width="16" height="9" viewBox="0 0 16 9" fill="none" xmlns="http://www.w3.org/2000/svg">
<path fill-rule="evenodd" clip-rule="evenodd" d="M7.99995 3.00026C9.65672 3.00026 10.9998 4.34353 11 6.00026C11 7.65711 9.65681 9.00026 7.99995 9.00026C6.34311 9.00025 4.99995 7.6571 4.99995 6.00026C5.0001 4.34353 6.3432 3.00027 7.99995 3.00026ZM7.99995 5.00026C7.44777 5.00027 7.0001 5.4481 6.99995 6.00026C6.99995 6.55254 7.44768 7.00025 7.99995 7.00026C8.55224 7.00026 8.99995 6.55254 8.99995 6.00026C8.99981 5.44809 8.55215 5.00026 7.99995 5.00026Z" fill="#8F94A3"/>
<path d="M6.28511 0.126233C9.05813 -0.319818 12.3363 0.346698 15.6582 3.24733C16.0737 3.6106 16.1159 4.24259 15.7529 4.65846C15.3896 5.07408 14.7576 5.11632 14.3418 4.75319C11.4418 2.22123 8.75613 1.75466 6.60347 2.10084C4.39941 2.45538 2.64901 3.68092 1.73726 4.67604C1.36416 5.08311 0.731341 5.11059 0.324172 4.73756C-0.0827317 4.36444 -0.110331 3.73159 0.262649 3.32448C1.42501 2.05588 3.56375 0.564094 6.28511 0.126233Z" fill="#8F94A3"/>
</svg>
