<svg width="128" height="128" viewBox="0 0 128 128" fill="none" xmlns="http://www.w3.org/2000/svg">
<rect width="128" height="128" fill="#ABB0BA"/>
<path d="M41.3714 67C35.6434 67 31 71.6723 31 77.4359C31 85.9762 35.3053 94.0469 42.6439 98.415C52.0268 104 54.3723 104 64 104C73.6277 104 75.9732 104 85.3561 98.415C92.6947 94.0469 97 85.9762 97 77.4359C97 71.6723 92.3566 67 86.6286 67H41.3714Z" fill="white"/>
<circle cx="64" cy="42" r="17" fill="white"/>
<path d="M46.0254 58.4658C47.5802 57.2184 49.7548 57.1798 51.3477 58.3486L51.5 58.4648V58.4658C53.4799 60.0545 56.0426 61.3278 58.9229 62.0996C61.1572 62.6983 63.3482 62.9401 65.4365 62.8369L65.4385 62.8359C66.5625 62.7814 67.6514 63.1558 68.501 63.8857L68.668 64.0371C69.5378 64.8656 70.0263 66.0021 70.0264 67.2051V80.1777C70.0264 92.332 61.3656 102.819 49.4297 105.12C48.9903 105.205 48.5366 105.206 48.0947 105.12V105.119C36.1594 102.818 27.5 92.3315 27.5 80.1777V67.2051C27.5001 66.0021 27.9883 64.8657 28.8584 64.0371L29.0254 63.8867C29.8179 63.2054 30.8185 62.8329 31.8643 62.8311L32.0889 62.8359L32.0908 62.8369C34.1783 62.9403 36.369 62.6982 38.6035 62.0996C41.4835 61.3279 44.0453 60.0546 46.0254 58.4658Z" fill="#E7E9EF" stroke="#ABB0BA" stroke-width="5"/>
</svg>
