<svg width="128" height="128" viewBox="0 0 128 128" fill="none" xmlns="http://www.w3.org/2000/svg">
<rect width="128" height="128" fill="#ABB0BA"/>
<circle cx="64" cy="42" r="17" fill="white"/>
<path d="M54.8105 68.3584L57.624 73.9004C57.7073 74.0645 57.8013 74.2215 57.9043 74.3701C57.8221 74.5737 57.7555 74.786 57.707 75.0059L57.6719 75.1846L53.0771 101.646C52.9834 102.181 52.9757 102.724 53.0508 103.257C50.1485 102.545 47.2401 101.151 42.6436 98.415C35.3051 94.0469 31 85.9757 31 77.4355C31.0002 71.6722 35.6434 67.0002 41.3711 67H54.1211L54.8105 68.3584ZM86.6289 67C92.3566 67.0002 96.9998 71.6722 97 77.4355C97 85.9757 92.6949 94.0469 85.3564 98.415C80.7594 101.151 77.8508 102.545 74.9482 103.257C75.0234 102.726 75.0157 102.185 74.9229 101.653H74.9238L70.3281 75.1846L70.293 75.0059C70.2445 74.7859 70.1769 74.5738 70.0947 74.3701C70.1979 74.2214 70.2926 74.0646 70.376 73.9004L73.1895 68.3584L73.8789 67H86.6289ZM61.2168 74.9502C61.2281 74.9453 61.2395 74.941 61.251 74.9365C61.2395 74.9409 61.2281 74.9454 61.2168 74.9502ZM61.5234 74.873C61.4561 74.8791 61.3904 74.8916 61.3271 74.9102C61.3343 74.908 61.3414 74.9053 61.3486 74.9033C61.4051 74.8878 61.4637 74.8774 61.5234 74.8721V74.873Z" fill="white"/>
<path d="M73.7969 104.98C73.7964 104.981 73.7948 104.983 73.7939 104.984L73.7949 104.982C73.7955 104.982 73.7965 104.981 73.7969 104.98V104.979C73.845 104.903 73.9156 104.787 73.9863 104.649C73.9936 104.635 73.9997 104.622 74.0059 104.609L74.0068 104.61C74.0159 104.592 74.0244 104.573 74.0342 104.553C74.0358 104.549 74.0377 104.546 74.0391 104.543C74.0447 104.531 74.0496 104.521 74.0527 104.514C74.0546 104.509 74.0565 104.505 74.0576 104.503C74.1021 104.409 74.1521 104.299 74.1992 104.175C74.2556 104.026 74.3071 103.868 74.3506 103.701L74.4072 103.459C74.5229 102.891 74.5307 102.305 74.4297 101.732L74.4277 101.719L74.4248 101.706L69.8379 77.2236C69.6766 76.3632 69.2073 75.6279 68.5586 75.1182C69.1349 74.7851 69.6168 74.291 69.9297 73.6748L72.0059 69.584C73.1877 67.2558 71.4967 64.5002 68.8857 64.5H59.1143C56.5034 64.5003 54.8123 67.2558 55.9941 69.584L58.0703 73.6748C58.3831 74.2907 58.8644 74.7851 59.4404 75.1182C58.87 75.5666 58.4385 76.1896 58.2334 76.9189L58.1621 77.2236L53.5752 101.705L53.5723 101.719L53.5703 101.733C53.4552 102.39 53.4829 103.062 53.6484 103.703L53.666 103.771L53.6865 103.837L53.7559 104.055L53.7754 104.116L53.7979 104.176C53.8526 104.321 53.9101 104.448 53.959 104.55L53.96 104.553C53.9868 104.608 54.0114 104.655 54.0264 104.683C54.0338 104.697 54.0399 104.709 54.0439 104.717C54.0489 104.726 54.0513 104.728 54.0527 104.73C54.0892 104.799 54.1383 104.89 54.2002 104.989L54.2021 104.992C54.2041 104.995 54.2048 104.996 54.209 105.003C54.2122 105.008 54.2163 105.016 54.2217 105.024C54.2324 105.041 54.2492 105.068 54.2695 105.099L54.2705 105.098C54.3212 105.174 54.3759 105.252 54.4346 105.33M73.7969 104.98C73.789 104.993 73.7819 105.004 73.7754 105.015V105.016L73.7764 105.015C73.7755 105.016 73.7743 105.017 73.7734 105.019C73.763 105.035 73.7477 105.06 73.7295 105.087L73.7285 105.086C73.6761 105.165 73.5871 105.296 73.4707 105.439L73.4717 105.44L67.5811 112.771L67.582 112.772C67.1572 113.303 66.6171 113.739 65.9941 114.041L65.9277 114.073L65.8594 114.102L65.6436 114.191L65.582 114.217L65.5195 114.238C65.3477 114.299 65.1936 114.34 65.082 114.367H65.0811C65.0287 114.38 64.9853 114.39 64.9629 114.395C64.952 114.397 64.9408 114.399 64.9375 114.399H64.9365L64.582 114.46H64.5811C64.5801 114.46 64.579 114.46 64.5742 114.461C64.5704 114.461 64.5632 114.462 64.5557 114.463C64.5404 114.465 64.5149 114.467 64.4844 114.471C64.3874 114.481 64.2109 114.5 64.0049 114.5H63.9326L63.8594 114.496L63.6279 114.483L63.5596 114.479L63.4912 114.472C63.0395 114.421 62.6016 114.304 62.1904 114.127L62.0156 114.047C61.3991 113.751 60.8539 113.32 60.4219 112.784L60.4189 112.781L54.5381 105.464L54.5371 105.465C54.5012 105.421 54.4734 105.383 54.4561 105.359C54.4473 105.347 54.4402 105.337 54.4355 105.33C54.4313 105.324 54.4275 105.319 54.4268 105.318C54.4275 105.319 54.4284 105.321 54.4297 105.323C54.4309 105.325 54.4326 105.327 54.4346 105.33M54.4346 105.33C54.4374 105.334 54.4412 105.339 54.4453 105.345C54.4469 105.347 54.4493 105.349 54.4512 105.352C54.4457 105.344 54.44 105.337 54.4346 105.33Z" fill="#E7E9EF" stroke="#ABB0BA" stroke-width="5"/>
</svg>
