<svg width="128" height="128" viewBox="0 0 128 128" fill="none" xmlns="http://www.w3.org/2000/svg">
<rect width="128" height="128" fill="#ABB0BA"/>
<circle cx="64" cy="42" r="17" fill="white"/>
<path d="M41.3714 67C35.6434 67 31 71.6723 31 77.4359C31 85.9762 35.3053 94.0469 42.6439 98.415C52.0268 104 54.3723 104 64 104C73.6277 104 75.9732 104 85.3561 98.415C92.6947 94.0469 97 85.9762 97 77.4359C97 71.6723 92.3566 67 86.6286 67H41.3714Z" fill="white"/>
<path d="M87.25 56.9307C88.7229 53.7713 93.2771 53.7713 94.75 56.9307L94.8867 57.2578L98.9336 68.0801L110.478 68.584C114.312 68.7519 115.884 73.589 112.88 75.9785L103.837 83.1709L106.925 94.3057C107.95 98.0043 103.836 100.993 100.635 98.875L91 92.4971L81.3652 98.875C78.1645 100.993 74.05 98.0044 75.0752 94.3057L78.1621 83.1709L69.1201 75.9785C66.1164 73.589 67.688 68.7519 71.5225 68.584L83.0654 68.0801L87.1133 57.2578L87.25 56.9307Z" fill="#E7E9EF" stroke="#ABB0BA" stroke-width="5"/>
</svg>
