<svg width="14" height="12" viewBox="0 0 14 12" fill="none" xmlns="http://www.w3.org/2000/svg">
<path d="M3.86632 2.2579e-05C4.10693 -0.000199167 4.30568 0.000313064 4.49713 0.0457996C4.667 0.0861931 4.8298 0.152265 4.9787 0.242641C5.14654 0.344513 5.28748 0.484062 5.45753 0.652802L6.15151 1.33946C6.37004 1.5559 6.4257 1.60684 6.48294 1.64158C6.54366 1.67843 6.60968 1.70568 6.67886 1.72215C6.74399 1.73764 6.81956 1.74138 7.12839 1.74138H10.1268C10.6814 1.74137 11.1278 1.74144 11.4891 1.77068C11.8614 1.8008 12.1868 1.86369 12.487 2.01513C12.9655 2.25658 13.3548 2.64208 13.5985 3.1156C13.7513 3.4127 13.8153 3.73494 13.8457 4.10347C13.8752 4.46118 13.8759 4.90359 13.8759 5.45298V8.28749C13.8759 8.83694 13.8752 9.27925 13.8457 9.63699C13.8153 10.0057 13.7514 10.3276 13.5985 10.6249C13.3548 11.0985 12.9656 11.4838 12.487 11.7253C12.1867 11.8768 11.8615 11.9406 11.4891 11.9707C11.1278 11.9999 10.6814 12 10.1268 12H3.74913C3.19448 12 2.74811 11.9999 2.38681 11.9707C2.01444 11.9406 1.6892 11.8769 1.38887 11.7253C0.910306 11.4838 0.521092 11.0986 0.277409 10.6249C0.124511 10.3276 0.0606283 10.0057 0.0302128 9.63699C0.000703259 9.27925 -6.29758e-06 8.83694 3.99118e-08 8.28749V3.71162C-6.25743e-06 3.16246 0.000726394 2.72065 0.0302128 2.36303C0.0606232 1.99437 0.124565 1.67234 0.277409 1.37516C0.521092 0.901465 0.910303 0.516205 1.38887 0.274684C1.68922 0.123141 2.01441 0.0594566 2.38681 0.0293198C2.74811 8.40032e-05 3.19447 1.60639e-05 3.74913 2.2579e-05H3.86632ZM1.07851 5.61594C1.02688 5.61596 0.985346 5.65775 0.985121 5.70933V8.26368C0.985121 8.84028 0.98483 9.24396 1.01076 9.55826C1.03621 9.86656 1.08394 10.0463 1.1545 10.1836C1.30405 10.4743 1.54337 10.7104 1.83657 10.8583C1.97487 10.9281 2.15615 10.976 2.46738 11.0011C2.78457 11.0268 3.1917 11.0268 3.77385 11.0268H10.1021C10.6842 11.0268 11.0913 11.0268 11.4085 11.0011C11.72 10.9759 11.9019 10.9281 12.0403 10.8583C12.3333 10.7103 12.5719 10.4741 12.7214 10.1836C12.792 10.0463 12.8397 9.86658 12.8652 9.55826C12.8911 9.24396 12.8908 8.84028 12.8908 8.26368V5.70933C12.8906 5.65774 12.8491 5.61594 12.7974 5.61594H1.07851ZM3.77385 0.973241C3.19169 0.973241 2.78458 0.97323 2.46738 0.998876C2.15609 1.02407 1.97488 1.07194 1.83657 1.1417C1.54337 1.28967 1.30405 1.52574 1.1545 1.81645C1.08397 1.95371 1.0362 2.13346 1.01076 2.44177C0.984827 2.7561 0.985121 3.15964 0.985121 3.73634V4.54934C0.985293 4.60096 1.02685 4.64271 1.07851 4.64272H12.7901C12.8153 4.6427 12.8393 4.63239 12.8569 4.61434C12.8745 4.59624 12.8841 4.57182 12.8835 4.54659C12.8796 4.4129 12.8742 4.29269 12.8652 4.18312C12.8397 3.87446 12.7921 3.69422 12.7214 3.55689C12.5719 3.26633 12.3333 3.03009 12.0403 2.88214C11.9019 2.81233 11.72 2.76544 11.4085 2.74023C11.0913 2.71459 10.6842 2.7146 10.1021 2.7146H7.07987C6.83929 2.71482 6.64048 2.71429 6.44906 2.66882C6.27918 2.62843 6.11639 2.56144 5.96749 2.47106C5.79972 2.3692 5.65865 2.2305 5.48866 2.06182L4.79468 1.37425C4.57628 1.15793 4.52048 1.10685 4.46326 1.07212C4.40255 1.03531 4.33648 1.008 4.26733 0.991552C4.20219 0.976063 4.12668 0.973243 3.8178 0.973241H3.77385Z" fill="currentColor"/>
</svg>
