<svg width="16" height="16" viewBox="0 0 16 16" fill="none" xmlns="http://www.w3.org/2000/svg">
<path d="M15 8C15 4.13401 11.866 1 8 1C4.13401 1 1 4.13401 1 8C1 11.866 4.13401 15 8 15V16C3.58172 16 0 12.4183 0 8C0 3.58172 3.58172 0 8 0C12.4183 0 16 3.58172 16 8C16 12.4183 12.4183 16 8 16V15C11.866 15 15 11.866 15 8Z" fill="currentColor"/>
<path d="M8.58754 6.69497V11.7556H7.39709V6.69497H8.58754ZM7.99991 4C8.18228 4 8.33932 4.04897 8.47103 4.14691C8.60611 4.24484 8.67366 4.4137 8.67366 4.65348C8.67366 4.88988 8.60611 5.05874 8.47103 5.16005C8.33932 5.25799 8.18228 5.30696 7.99991 5.30696C7.81079 5.30696 7.65038 5.25799 7.51867 5.16005C7.39034 5.05874 7.32617 4.88988 7.32617 4.65348C7.32617 4.4137 7.39034 4.24484 7.51867 4.14691C7.65038 4.04897 7.81079 4 7.99991 4Z" fill="currentColor"/>
</svg>
