<svg width="57" height="45" viewBox="0 0 57 45" fill="none" xmlns="http://www.w3.org/2000/svg">
<g opacity="0.5">
<path fill-rule="evenodd" clip-rule="evenodd" d="M20.0956 7.1645C23.908 7.1645 26.9986 10.2437 26.9986 14.0421C26.9986 17.8405 23.908 20.9197 20.0956 20.9197C16.2832 20.9197 13.1926 17.8405 13.1926 14.0421C13.1926 10.2437 16.2832 7.16452 20.0956 7.1645ZM20.0956 8.95874C17.2778 8.95876 14.9935 11.2346 14.9935 14.0421C14.9935 16.8496 17.2777 19.1255 20.0956 19.1255C22.9135 19.1255 25.1978 16.8496 25.1978 14.0421C25.1977 11.2346 22.9135 8.95874 20.0956 8.95874Z" fill="currentColor"/>
<path fill-rule="evenodd" clip-rule="evenodd"
      d="M46.7437 0C52.4079 0 57 4.57521 57 10.2186V34.7814C57 40.4248 52.4079 45 46.7437 45H10.2563C4.59212 45 0 40.4248 0 34.7814V10.2186C0 4.57521 4.59212 0 10.2563 0H46.7437ZM24.5487 37.6215C24.3798 37.79 24.1501 37.8854 23.9111 37.8854C23.6722 37.8853 23.4424 37.79 23.2736 37.6215L13.1858 27.5555L2.501 38.202C3.81897 41.1641 6.7947 43.2307 10.2563 43.2307H46.7437C50.8156 43.2307 54.2152 40.3715 55.0345 36.5584L40.3126 21.8898L24.5487 37.6215ZM10.2563 1.7693C5.57246 1.7693 1.77583 5.55194 1.77583 10.2186V34.7814C1.77583 35.2846 1.82217 35.7772 1.90681 36.2562L12.5512 25.6519L12.6177 25.5924C12.7777 25.4618 12.9791 25.3891 13.1878 25.389C13.4266 25.3891 13.6565 25.4836 13.8253 25.6519L23.9111 35.717L39.6741 19.9861L39.7405 19.9267C39.9006 19.7959 40.1028 19.7234 40.3116 19.7232C40.5503 19.7233 40.7793 19.8181 40.9482 19.9861L55.2242 34.2096V10.2186C55.2242 5.55194 51.4275 1.7693 46.7437 1.7693H10.2563Z" fill="currentColor"/>
</g>
</svg>
