<svg width="12" height="10" viewBox="0 0 12 10" fill="none" xmlns="http://www.w3.org/2000/svg">
<g clip-path="url(#clip0_6683_39129)">
<path d="M3.24316 0.53125C3.69047 0.463854 4.08295 0.506738 4.42871 0.638672C4.77169 0.769615 5.04078 0.977647 5.25781 1.2002C5.47123 1.41906 5.64546 1.66393 5.79102 1.87305C5.8693 1.98552 5.93784 2.08541 6.00195 2.17383C6.04503 2.11343 6.09647 2.04207 6.15625 1.95508C6.293 1.75607 6.46586 1.50596 6.68164 1.27637C7.13118 0.798097 7.78914 0.38555 8.75684 0.53125C9.41372 0.630292 9.99253 0.896714 10.4697 1.32422L10.668 1.51758L10.6699 1.51953C11.1474 2.031 11.4302 2.64897 11.4873 3.33594H11.4883C11.6165 4.7358 10.7151 5.96586 9.71191 6.92773C8.6912 7.90633 7.424 8.737 6.58691 9.31836L6.58496 9.32031C6.39974 9.44757 6.19743 9.49852 6.00391 9.5H5.99609C5.80294 9.49849 5.6004 9.44765 5.41504 9.32031L5.41309 9.31836C4.57601 8.737 3.3088 7.90633 2.28809 6.92773C1.28489 5.96586 0.383446 4.73581 0.511719 3.33594H0.512695C0.569808 2.64895 0.852492 2.03103 1.33008 1.51953L1.33203 1.51758C1.84387 0.976266 2.49227 0.644429 3.24316 0.53125Z" stroke="#6C7084"/>
</g>
<defs>
<clipPath id="clip0_6683_39129">
<rect width="12" height="10" fill="white"/>
</clipPath>
</defs>
</svg>
