<svg width="21" height="18" viewBox="0 0 21 18" fill="none" xmlns="http://www.w3.org/2000/svg">
<g clip-path="url(#clip0_6683_39134)">
<path d="M10.5049 2.53125C11.7281 1.11412 13.7428 0.224884 15.6865 0.576172L15.6855 0.577148C16.9348 0.777276 18.0117 1.33016 18.8799 2.21973L19.0508 2.40234L19.0527 2.4043C19.8929 3.35055 20.3816 4.48041 20.4795 5.73145L20.4951 5.96875C20.6035 8.41684 19.0846 10.6414 17.251 12.4902C15.3445 14.4124 12.9757 16.0474 11.3691 17.2207L11.3672 17.2217C11.0977 17.4166 10.7999 17.4976 10.5049 17.5H10.4971C10.2023 17.4977 9.90369 17.4167 9.63379 17.2217L9.63184 17.2207C8.02533 16.0474 5.65559 14.4125 3.74902 12.4902C1.85633 10.5819 0.299048 8.27309 0.520508 5.73145C0.61844 4.48036 1.10703 3.3506 1.94727 2.4043L1.94922 2.40234C2.84528 1.40584 3.98116 0.79075 5.31348 0.577148C7.25981 0.225385 9.27641 1.11695 10.499 2.53711C10.5009 2.53513 10.503 2.53321 10.5049 2.53125Z" fill="white" stroke="#454754"/>
</g>
<defs>
<clipPath id="clip0_6683_39134">
<rect width="21" height="18" fill="white"/>
</clipPath>
</defs>
</svg>
