<svg width="10" height="10" viewBox="0 0 10 10" fill="none" xmlns="http://www.w3.org/2000/svg">
<path fill-rule="evenodd" clip-rule="evenodd" d="M8.13107 1.61403e-05C8.31746 0.00100923 8.50249 0.0385569 8.67404 0.110368C8.84537 0.182237 9.00091 0.289124 9.13107 0.420915L9.13204 0.421891L9.57931 0.86818C10.1369 1.425 10.1404 2.3216 9.59103 2.87013L3.22384 9.24025L0.613491 9.98244L0.518764 10H0.448451C0.378029 9.99521 0.307855 9.97505 0.245326 9.94045C0.134861 9.87901 0.0549202 9.7766 0.0207171 9.65724L0.0168108 9.64455C-0.00550286 9.56148 -0.00602878 9.47351 0.0177874 9.39064L0.777553 6.76076L7.12423 0.412126L7.22872 0.318376C7.33625 0.23088 7.45668 0.158303 7.58615 0.105485C7.75863 0.0352623 7.94457 -0.000876424 8.13107 1.61403e-05ZM1.634 7.25685L1.62619 7.26564L1.62228 7.27638L1.61447 7.30177L1.61349 7.30373L1.24728 8.56935L1.1965 8.74806L1.17111 8.83791L1.26095 8.81154L2.68087 8.40724L2.70431 8.40041L2.71798 8.39748L6.78146 4.33107L5.66232 3.22365L1.634 7.25685ZM8.13595 0.948258C8.07425 0.947969 8.01141 0.960107 7.95431 0.983415C7.8977 1.00663 7.84473 1.0405 7.80099 1.084L6.39083 2.49416L7.50997 3.60158L8.91525 2.19631C9.00253 2.10806 9.05247 1.98781 9.05197 1.8633C9.05127 1.73921 9.00136 1.61979 8.91329 1.53224L8.46603 1.08595C8.42283 1.04247 8.36997 1.00798 8.31369 0.984391C8.2573 0.960915 8.19688 0.948661 8.13595 0.948258Z" fill="#28BE46"/>
</svg>
