<svg width="13" height="13" viewBox="0 0 13 13" fill="none" xmlns="http://www.w3.org/2000/svg">
<path fill-rule="evenodd" clip-rule="evenodd" d="M6.5 13C10.0899 13 13 10.0898 13 6.5C13 2.91016 10.0899 0 6.5 0C2.91014 0 0 2.91016 0 6.5C0 10.0898 2.91014 13 6.5 13ZM6.5 11.9167C9.49155 11.9167 11.9167 9.49155 11.9167 6.5C11.9167 3.50845 9.49155 1.08333 6.5 1.08333C3.50845 1.08333 1.08333 3.50845 1.08333 6.5C1.08333 9.49155 3.50845 11.9167 6.5 11.9167Z" fill="#ABB0BA"/>
<path d="M6.01852 7.5944C6.01852 7.3208 6.05062 7.09548 6.11482 6.91845C6.17901 6.73605 6.25658 6.58315 6.34753 6.45976C6.44383 6.33101 6.54547 6.22372 6.65247 6.13788C6.76482 6.05205 6.86646 5.96889 6.95741 5.88842C7.0537 5.80259 7.13395 5.70871 7.19815 5.60678C7.26235 5.49948 7.29444 5.36805 7.29444 5.21247C7.29444 4.99788 7.22757 4.8289 7.09383 4.70551C6.96543 4.57676 6.78086 4.51238 6.54012 4.51238C6.28868 4.51238 6.09074 4.58212 5.9463 4.7216C5.8072 4.86109 5.72695 5.05153 5.70556 5.29294H4.69444C4.70514 5.04617 4.75329 4.82085 4.83889 4.61699C4.92984 4.41313 5.05288 4.2361 5.20802 4.08589C5.36852 3.93568 5.55576 3.82033 5.76975 3.73986C5.98909 3.65403 6.23251 3.61111 6.5 3.61111C6.79424 3.61111 7.0537 3.64866 7.2784 3.72377C7.50309 3.79888 7.69033 3.90349 7.84012 4.0376C7.99527 4.17172 8.11029 4.33266 8.18518 4.52043C8.26543 4.70283 8.30556 4.90669 8.30556 5.132C8.30556 5.36268 8.27346 5.55581 8.20926 5.71139C8.14506 5.86697 8.06214 6.00377 7.96049 6.12179C7.8642 6.23445 7.7572 6.33638 7.63951 6.42758C7.52716 6.51878 7.42016 6.61802 7.31852 6.72532C7.22222 6.83261 7.14198 6.95332 7.07778 7.08743C7.01358 7.22155 6.98148 7.39054 6.98148 7.5944H6.01852ZM6.5 9.38889C6.31276 9.38889 6.15761 9.3272 6.03457 9.20381C5.91687 9.07505 5.85803 8.92216 5.85803 8.74513C5.85803 8.56809 5.91687 8.41788 6.03457 8.29449C6.15761 8.16574 6.31276 8.10136 6.5 8.10136C6.68724 8.10136 6.83971 8.16574 6.95741 8.29449C7.08045 8.41788 7.14198 8.56809 7.14198 8.74513C7.14198 8.92216 7.08045 9.07505 6.95741 9.20381C6.83971 9.3272 6.68724 9.38889 6.5 9.38889Z" fill="#ABB0BA"/>
</svg>
