<svg width="15" height="14" viewBox="0 0 15 14" fill="none" xmlns="http://www.w3.org/2000/svg">
<path d="M6.81834 0.142795C7.16475 -0.0475315 7.5846 -0.0476652 7.93094 0.142795L14.1452 3.56209C14.5103 3.76295 14.7468 4.15623 14.747 4.57323V9.23693C14.7468 9.53114 14.5079 9.76938 14.2137 9.76938C13.9194 9.76938 13.6805 9.53115 13.6804 9.23693V5.84105L12.3059 6.59723L12.2599 6.62238V8.64031C12.2599 8.77286 12.2592 8.87904 12.2582 8.96897L12.2512 9.20225C12.1115 11.5109 10.27 13.3517 7.96129 13.4913C7.86448 13.4972 7.76757 13.4994 7.66991 13.5H7.0785C6.98097 13.4994 6.8838 13.4972 6.78712 13.4913C4.47858 13.3515 2.63782 11.5108 2.49804 9.20225C2.48972 9.06467 2.48936 8.90568 2.48937 8.64031V6.62498L2.44341 6.59983L0.598044 5.58523C-0.199361 5.14653 -0.199335 4.00082 0.598044 3.56209L6.81834 0.142795ZM11.0623 7.28144L7.93094 9.00453C7.58462 9.19497 7.16473 9.19484 6.81834 9.00453L3.68695 7.28317L3.55514 7.2112V8.61516C3.55514 8.91099 3.55594 9.03553 3.56207 9.13721C3.66919 10.908 5.08134 12.321 6.85216 12.4282C6.95384 12.4343 7.07839 12.4342 7.3742 12.4342C7.67044 12.4342 7.79536 12.4343 7.89712 12.4282C9.66794 12.321 11.0801 10.908 11.1872 9.13721C11.1933 9.03553 11.1941 8.91099 11.1941 8.61516V7.20946L11.0623 7.28144ZM1.11228 4.49605L0.970066 4.57323L7.3742 8.09399L7.41756 8.07057L13.6318 4.65127L13.7731 4.57323L13.6318 4.49605L7.41756 1.07675L7.3742 1.05334L1.11228 4.49605Z" fill="#2E3038"/>
</svg>
