<svg width="19" height="19" viewBox="0 0 19 19" fill="none" xmlns="http://www.w3.org/2000/svg">
<path d="M19 9.5C19 14.7467 14.7467 19 9.5 19C4.25329 19 0 14.7467 0 9.5C0 4.25329 4.25329 0 9.5 0C14.7467 0 19 4.25329 19 9.5Z" fill="url(#paint0_linear_6683_39144)"/>
<path fill-rule="evenodd" clip-rule="evenodd" d="M9.47344 4.00003C9.9903 3.98995 10.4872 4.25863 10.7469 4.73343L11.4852 6.06839C11.8315 6.69394 12.3358 7.18719 12.9598 7.52933L14.2557 8.23831C14.7191 8.49359 14.9921 8.97137 14.9998 9.47171C15.01 9.99513 14.7345 10.4958 14.2557 10.7588L12.9598 11.4688C12.3359 11.8109 11.829 12.3008 11.4852 12.9287L10.7596 14.2471V14.2491C10.4947 14.7291 10.0202 14.9924 9.52617 15C9.03222 15.0075 8.51244 14.7389 8.25274 14.2666L7.53789 12.9678C7.18389 12.3269 6.68396 11.8241 6.04473 11.4717L4.70781 10.7364C4.25965 10.4887 4.01005 10.0058 3.99981 9.52835C3.98962 9.0254 4.24438 8.51943 4.70781 8.26663L6.04277 7.53128C6.68445 7.17893 7.18648 6.67561 7.53789 6.03226L8.25274 4.73343C8.50486 4.27384 8.98446 4.01024 9.47344 4.00003ZM9.50859 6.29105C8.58937 7.98608 8.01138 8.60438 6.29766 9.49026C6.53175 9.63566 6.71786 9.74556 6.92656 9.86038C7.84829 10.3633 8.58932 11.0959 9.10625 12.0098L9.50078 12.71L9.81133 12.1602C10.6059 10.756 11.2689 10.3045 12.7078 9.49515C11.0194 8.60155 10.4024 8.00153 9.50859 6.29105Z" fill="white"/>
<defs>
<linearGradient id="paint0_linear_6683_39144" x1="-5.88095" y1="18.0952" x2="16.2857" y2="3.16667" gradientUnits="userSpaceOnUse">
<stop offset="0.286868" stop-color="#27FF6F"/>
<stop offset="0.371623" stop-color="#29EDB8"/>
<stop offset="0.55" stop-color="#00C7E6"/>
<stop offset="0.825258" stop-color="#0096FF"/>
<stop offset="1" stop-color="#6573FF"/>
</linearGradient>
</defs>
</svg>
