<svg width="15" height="17" viewBox="0 0 15 17" fill="none" xmlns="http://www.w3.org/2000/svg">
<path d="M5.96931 6.88812C6.30746 6.88812 6.58119 7.16185 6.58119 7.5V12.0921C6.58119 12.4302 6.30746 12.704 5.96931 12.704C5.63116 12.704 5.35743 12.4302 5.35743 12.0921V7.5C5.35743 7.16185 5.63116 6.88812 5.96931 6.88812Z" fill="currentColor"/>
<path d="M9.03069 6.88812C9.36884 6.88812 9.64257 7.16185 9.64257 7.5V12.0921C9.64257 12.4302 9.36884 12.704 9.03069 12.704C8.69254 12.704 8.41881 12.4302 8.41881 12.0921V7.5C8.41881 7.16185 8.69254 6.88812 9.03069 6.88812Z" fill="currentColor"/>
<path fill-rule="evenodd" clip-rule="evenodd" d="M9.03069 0C9.59904 0 10.1446 0.224942 10.5464 0.626827C10.9483 1.02871 11.1733 1.57422 11.1733 2.14257V3.06139H14.3881C14.7263 3.06139 15 3.33511 15 3.67327C15 4.01142 14.7263 4.28514 14.3881 4.28514H13.4693V14.3881C13.4693 14.9565 13.2444 15.502 12.8425 15.9039C12.4406 16.3057 11.8951 16.5307 11.3267 16.5307H3.67327C3.10491 16.5307 2.55941 16.3057 2.15752 15.9039C1.75564 15.502 1.53069 14.9565 1.53069 14.3881V4.28514H0.611879C0.273727 4.28514 0 4.01142 0 3.67327C0 3.33511 0.273727 3.06139 0.611879 3.06139H3.82673V2.14257C3.82673 1.57422 4.05168 1.02871 4.45356 0.626827C4.85545 0.224942 5.40096 0 5.96931 0H9.03069ZM2.75445 14.3881C2.75445 14.6317 2.85128 14.8656 3.02352 15.0379C3.19576 15.2101 3.42969 15.3069 3.67327 15.3069H11.3267C11.5703 15.3069 11.8042 15.2101 11.9765 15.0379C12.1487 14.8656 12.2455 14.6317 12.2455 14.3881V4.28514H2.75445V14.3881ZM5.96931 1.22376C5.72573 1.22376 5.4918 1.32059 5.31956 1.49282C5.14732 1.66506 5.05049 1.89899 5.05049 2.14257V3.06139H9.94951V2.14257C9.94951 1.89899 9.85268 1.66506 9.68044 1.49282C9.5082 1.32059 9.27427 1.22376 9.03069 1.22376H5.96931Z" fill="currentColor"/>
</svg>
