<svg width="13" height="9" viewBox="0 0 13 9" fill="none" xmlns="http://www.w3.org/2000/svg">
<path d="M10.7182 5.35465C10.5817 5.18109 10.5512 5.00541 10.6257 4.82741C10.8118 4.3525 13.5214 1.33614 12.3926 1.33614C11.6169 1.3458 10.6841 1.33614 9.94051 1.33614C9.80246 1.36764 9.71314 1.43556 9.65725 1.57375C9.22241 2.51375 8.69029 3.66089 7.91043 4.39814C7.80783 4.47569 7.74385 4.47239 7.62698 4.44371C7.07993 3.90378 7.66324 2.05396 7.33057 1.32303C7.265 1.17996 7.12149 1.11534 6.97466 1.07895C6.23197 0.91301 4.53576 1.01178 4.25901 1.3458C4.17989 1.44129 4.16885 1.4934 4.22597 1.50197C4.48966 1.54097 4.67633 1.63427 4.7862 1.78177C4.99347 2.20969 5.14622 4.48914 4.53576 4.48914C3.9253 4.48914 2.94092 2.25211 2.67049 1.63197C2.59853 1.44524 2.41533 1.3382 2.2223 1.3066L0.416289 1.31954C0.0988366 1.31954 -0.0785816 1.46635 0.0339362 1.76212C0.974583 3.95113 3.03304 8.19415 6.19019 8.08793C6.50646 8.08793 7.05055 8.20176 7.29756 7.94471C7.637 7.52252 7.22302 6.7706 7.80509 6.48385C7.95188 6.41061 8.10404 6.472 8.23015 6.56203C8.87759 7.0242 9.22134 7.83542 10.0198 8.08168C10.1602 8.12504 10.2832 8.13589 10.3888 8.11421L12.0761 8.08822C12.3893 8.08822 12.6979 7.95756 12.6331 7.60646C12.3871 6.85352 11.4069 6.07955 10.7182 5.35465Z" fill="#5C5F70"/>
</svg>
