<svg width="20" height="20" viewBox="0 0 20 20" fill="none" xmlns="http://www.w3.org/2000/svg">
<g clip-path="url(#clip0_6214_28599)">
<path fill-rule="evenodd" clip-rule="evenodd" d="M10 20C15.5228 20 20 15.5228 20 10C20 4.47716 15.5228 0 10 0C4.47716 0 0 4.47716 0 10C0 15.5228 4.47716 20 10 20Z" fill="white"/>
<path fill-rule="evenodd" clip-rule="evenodd" d="M8.17163 4.65959C8.17163 4.25594 8.49954 3.92871 8.90402 3.92871C11.6456 3.92871 13.868 6.14655 13.868 8.88237C13.868 9.28603 13.5401 9.61325 13.1356 9.61325C12.7311 9.61325 12.4032 9.28603 12.4032 8.88237C12.4032 6.95384 10.8366 5.39046 8.90402 5.39046C8.49954 5.39046 8.17163 5.06323 8.17163 4.65959Z" fill="#28BE46"/>
<path fill-rule="evenodd" clip-rule="evenodd" d="M15.339 8.15161C15.7435 8.15161 16.0714 8.47883 16.0714 8.88249C16.0714 11.6183 13.8489 13.8361 11.1074 13.8361C10.7029 13.8361 10.375 13.5089 10.375 13.1053C10.375 12.7016 10.7029 12.3744 11.1074 12.3744C13.0399 12.3744 14.6066 10.811 14.6066 8.88249C14.6066 8.47883 14.9345 8.15161 15.339 8.15161Z" fill="#28BE46"/>
<path fill-rule="evenodd" clip-rule="evenodd" d="M11.8399 15.3406C11.8399 15.7443 11.512 16.0715 11.1075 16.0715C8.366 16.0715 6.14355 13.8537 6.14355 11.1178C6.14355 10.7142 6.47147 10.387 6.87595 10.387C7.28043 10.387 7.60834 10.7142 7.60834 11.1178C7.60834 13.0464 9.17498 14.6098 11.1075 14.6098C11.512 14.6098 11.8399 14.937 11.8399 15.3406Z" fill="#28BE46"/>
<path fill-rule="evenodd" clip-rule="evenodd" d="M4.66098 11.8488C4.2565 11.8488 3.92859 11.5216 3.92859 11.118C3.92859 8.38213 6.15104 6.16431 8.89255 6.16431C9.29704 6.16431 9.62495 6.49152 9.62495 6.89516C9.62495 7.29882 9.29704 7.62604 8.89255 7.62604C6.96002 7.62604 5.39337 9.18943 5.39337 11.118C5.39337 11.5216 5.06546 11.8488 4.66098 11.8488Z" fill="#28BE46"/>
</g>
<defs>
<clipPath id="clip0_6214_28599">
<rect width="20" height="20" fill="white"/>
</clipPath>
</defs>
</svg>
