<svg width="100" height="100" viewBox="0 0 100 100" fill="none" xmlns="http://www.w3.org/2000/svg">
<rect width="100" height="100" rx="50" fill="white"/>
<path d="M34.5226 84.5058L33.9911 88.3828L33.9912 88.3828L34.5226 84.5058ZM72.281 55.047L76.3687 55.2166L76.3703 55.1909L76.3715 55.1652L72.281 55.047ZM73.8999 24.1789L77.9592 24.6341L77.9976 24.3569L77.9943 24.0779L73.8999 24.1789ZM38.3152 21.1592L37.886 17.284L37.883 17.2844L38.3152 21.1592ZM33.1332 29.2953L29.1927 30.4106L29.2314 30.5407L29.2795 30.6678L33.1332 29.2953ZM36.3908 38.921L40.3246 39.9494L40.507 39.345L40.4826 38.7192L36.3908 38.921ZM24.3191 52.8808L21.9279 56.0821L22.0736 56.1799L22.2278 56.2651L24.3191 52.8808ZM34.5121 51.825L37.4481 54.5046L34.5121 51.825ZM38.3257 53.84L42.4175 53.6382L38.3257 53.84ZM35.1297 72.9302L38.4016 75.2312L38.456 75.1616L38.507 75.0899L35.1297 72.9302ZM29.9085 80.8165L25.8586 81.4482L29.9085 80.8165ZM34.5226 84.5058L33.9912 88.3828C37.3843 88.759 41.607 88.0253 45.7934 86.6815C50.075 85.3071 54.7112 83.1682 59.0401 80.3726C67.551 74.8761 75.6959 66.2653 76.3687 55.2166L72.281 55.047L68.1932 54.8775C67.7368 62.3719 62.068 69.0521 54.5147 73.9301C50.8116 76.3216 46.8531 78.1408 43.2817 79.2872C39.6151 80.4642 36.7264 80.8142 35.054 80.6288L34.5226 84.5058ZM72.281 55.047L76.3715 55.1652C76.9179 43.5518 77.3011 35.9966 77.558 31.2727C77.6865 28.9099 77.7831 27.2613 77.8524 26.1701C77.9276 24.986 77.9623 24.6118 77.9592 24.6341L73.8999 24.1789L69.8406 23.7238C69.7259 24.5524 69.2764 31.8484 68.1905 54.9289L72.281 55.047ZM73.8999 24.1789L77.9943 24.0779C77.9721 22.2052 77.267 19.6194 75.1923 17.5373C72.9717 15.3087 69.6275 14.0993 65.3045 14.4415L65.5844 18.3312L65.8642 22.2208C68.132 22.0412 68.9327 22.6723 69.2157 22.9564C69.6447 23.3869 69.802 23.986 69.8055 24.2799L73.8999 24.1789ZM65.5844 18.3312L65.3045 14.4415C58.6253 14.9704 44.2133 16.5606 37.8861 17.284L38.3152 21.1592L38.7443 25.0344C45.1043 24.3073 59.362 22.7356 65.8642 22.2208L65.5844 18.3312ZM38.3152 21.1592L37.883 17.2844C35.1927 17.5939 32.4698 18.9627 30.6753 21.3028C28.7942 23.756 28.1677 26.9655 29.1927 30.4106L33.1332 29.2953L37.0737 28.1799C36.6771 26.8467 37.0118 26.1757 37.2622 25.8491C37.5993 25.4096 38.1782 25.0995 38.7474 25.034L38.3152 21.1592ZM33.1332 29.2953L29.2795 30.6678C29.6976 31.7717 30.1106 32.7954 30.4848 33.719C30.865 34.6578 31.1947 35.468 31.4773 36.2141C32.0745 37.7909 32.2801 38.6389 32.299 39.1227L36.3908 38.921L40.4826 38.7192C40.4123 36.9176 39.7923 35.0735 39.1847 33.4691C38.8648 32.6247 38.4972 31.722 38.13 30.8155C37.7567 29.8938 37.372 28.9396 36.9869 27.9228L33.1332 29.2953ZM36.3908 38.921L32.457 37.8925C32.4134 38.0369 32.382 38.1308 32.3578 38.1962C32.3341 38.2602 32.326 38.2728 32.3361 38.2531C32.3473 38.2311 32.3816 38.168 32.4462 38.083C32.5129 37.9953 32.6016 37.8978 32.713 37.8033C32.8246 37.7087 32.9351 37.6375 33.0313 37.5871C33.1248 37.5381 33.1872 37.518 33.1998 37.5142C33.2106 37.5109 33.1747 37.5227 33.0764 37.5375C32.9779 37.5524 32.8294 37.5686 32.6195 37.5781L32.7556 41.4767L32.8917 45.3753C34.6464 45.2954 36.5598 44.9129 38.1049 43.6032C39.5976 42.3379 40.092 40.7202 40.3246 39.9494L36.3908 38.921ZM32.7556 41.4767L32.6195 37.5781C31.3903 37.6342 30.6128 37.5379 28.7863 37.5246C27.1942 37.5129 25.3127 37.6009 23.1923 38.1516L24.2148 41.9164L25.2373 45.6812C26.3486 45.3926 27.4017 45.3217 28.6043 45.3305C29.5723 45.3375 31.4494 45.4411 32.8917 45.3753L32.7556 41.4767ZM24.2148 41.9164L23.1923 38.1516C20.0889 38.9575 17.1791 41.6657 16.3995 45.1787C15.5153 49.1633 17.488 53.0994 21.9279 56.0821L24.3191 52.8808L26.7103 49.6796C25.3594 48.7721 24.7953 48.0156 24.5669 47.5596C24.3564 47.1394 24.3709 46.8661 24.4105 46.6874C24.4599 46.4648 24.5961 46.2103 24.8235 45.982C25.0706 45.734 25.2666 45.6736 25.2373 45.6812L24.2148 41.9164ZM24.3191 52.8808L22.2278 56.2651C28.6141 59.7923 34.6792 57.2577 37.4481 54.5046L34.5121 51.825L31.5762 49.1454C30.8535 49.864 28.8607 50.8499 26.4104 49.4965L24.3191 52.8808ZM34.5121 51.825L37.4481 54.5046C37.2783 54.6734 37.1202 54.7642 36.9564 54.8245C36.7959 54.8836 36.3722 55.0041 35.7832 54.8746C35.084 54.7209 34.5681 54.3029 34.3119 53.9023C34.1159 53.5956 34.2138 53.5273 34.2338 54.0417L38.3257 53.84L42.4175 53.6382C42.3662 52.3243 42.0827 50.9598 41.3219 49.7697C40.501 48.4857 39.237 47.5973 37.7333 47.2667C35.0833 46.6843 32.7556 47.9727 31.5762 49.1454L34.5121 51.825ZM35.1297 72.9302L31.8577 70.6293C30.1594 72.8043 29.3185 73.3243 27.9349 74.8145C27.3133 75.4841 26.5625 76.4113 26.121 77.6793C25.6716 78.9701 25.669 80.2386 25.8586 81.4482L29.9085 80.8165L33.9584 80.1849C33.8935 79.7706 33.9681 79.8154 33.8898 80.0405C33.8193 80.2428 33.7335 80.2622 34.0326 79.9401C34.4905 79.4469 36.5148 77.6475 38.4016 75.2312L35.1297 72.9302ZM29.9085 80.8165L25.8586 81.4482C26.3213 84.4 28.3959 86.136 29.9698 87.0253C31.5058 87.8934 33.1039 88.2844 33.9911 88.3828L34.5226 84.5058L35.054 80.6288C35.1522 80.6397 35.1716 80.6476 35.1062 80.6332C35.0543 80.6217 34.9712 80.6009 34.8675 80.5686C34.6511 80.5013 34.4196 80.4074 34.2216 80.2955C34.0198 80.1815 33.934 80.0949 33.9138 80.0709C33.9129 80.0698 33.9485 80.1219 33.9584 80.1849L29.9085 80.8165ZM38.3257 53.84L34.2338 54.0417C34.2199 53.6839 34.3088 53.5876 34.161 54.0309C34.0357 54.407 33.8626 54.8302 33.6057 55.4766C33.3758 56.0553 33.0857 56.7976 32.8633 57.5572C32.6483 58.2918 32.4196 59.2888 32.4611 60.3596L36.5529 60.1591L40.6448 59.9586C40.6487 60.0583 40.6299 59.9603 40.749 59.5535C40.8607 59.1718 41.0291 58.7263 41.2588 58.1485C41.4615 57.6383 41.7492 56.9361 41.9627 56.2955C42.1538 55.7221 42.4596 54.7178 42.4175 53.6382L38.3257 53.84ZM36.5529 60.1591L32.4611 60.3596C32.5218 61.9292 33.3317 63.0263 34.0272 63.6715C34.3493 63.9703 34.6641 64.1914 34.8825 64.3354C35.0892 64.4718 35.3111 64.6037 35.3982 64.6564C35.7157 64.8487 35.4889 64.7436 35.2424 64.4774C35.081 64.3031 34.8686 64.0226 34.7131 63.6301C34.5522 63.2242 34.4969 62.8102 34.5222 62.4332L38.6084 62.6258L42.6947 62.8185C42.7412 62.1258 42.6389 61.4341 42.3795 60.7795C42.1255 60.1382 41.7629 59.6379 41.4162 59.2636C40.7992 58.5974 40.0617 58.1716 39.8604 58.0496C39.4567 57.8053 39.6174 57.8858 39.7826 58.0391C40.0752 58.3105 40.6065 58.9677 40.6448 59.9586L36.5529 60.1591ZM38.6084 62.6258L34.5222 62.4332C34.3293 65.3068 33.6151 68.1546 31.7523 70.7706L35.1297 72.9302L38.507 75.0899C41.4563 70.9482 42.441 66.5988 42.6947 62.8185L38.6084 62.6258ZM36.5529 60.1591L33.3324 62.6139L35.3879 65.0806L38.6084 62.6258L41.829 60.171L39.7735 57.7043L36.5529 60.1591Z" fill="url(#paint0_linear_254_51)"/>
<path d="M72.281 55.047C71.1517 73.5902 44.6536 85.629 34.5226 84.5058C33.7722 84.4226 30.3392 83.5644 29.9085 80.8165C29.3994 77.569 31.5445 77.5216 35.1297 72.9302C37.5357 69.5514 38.3851 65.9528 38.6084 62.6258C38.6932 61.3632 36.4409 60.3026 36.206 58.8038C36.1308 56.8615 38.382 55.2836 38.3257 53.84C38.183 50.1833 35.5596 50.7835 34.5121 51.825C32.7663 53.5609 28.7374 55.3211 24.3191 52.8808C17.2522 48.1335 20.9832 42.7555 24.2148 41.9164C27.4465 41.0772 30.0842 41.5985 32.7556 41.4767C35.427 41.355 35.9481 40.3877 36.3908 38.921C36.3016 36.6356 34.7397 33.5367 33.1332 29.2953C31.7116 24.517 35.0557 21.5342 38.3152 21.1592C44.6588 20.4339 58.9936 18.853 65.5844 18.3312C72.1751 17.8093 73.8742 22.0122 73.8999 24.1789C73.8158 24.7866 73.3742 31.8109 72.281 55.047Z" fill="url(#paint1_linear_254_51)" stroke="#810F09" stroke-width="3"/>
<path d="M64.4823 41.7906C56.5843 60.0637 41.1635 62.9553 37.4229 60.5471L41.7008 64.6668L38.4072 67.685C59.0445 69.7508 57.3716 60.7951 64.4823 41.7906Z" fill="#810F09" stroke="#810F09" stroke-width="3" stroke-linejoin="round"/>
<path d="M41.1687 39.5711C46.2052 39.6577 47.9256 38.7716 48.4259 27.7622C48.0573 41.439 50.1833 39.7911 58.8164 40.0006C50.2638 39.793 47.9646 45.4453 47.8694 48.3972C47.8687 48.4316 47.8679 48.4662 47.8669 48.5009C47.8675 48.4667 47.8683 48.4321 47.8694 48.3972C48.0088 41.5884 43.6672 39.7032 41.1687 39.5711C41.0549 39.5692 40.9394 39.5667 40.8222 39.5639C40.933 39.5625 41.0487 39.5648 41.1687 39.5711Z" fill="#810F09"/>
<path d="M48.4259 27.7622L49.9255 27.7986C49.9477 26.9759 49.3027 26.2907 48.4802 26.2631C47.6576 26.2356 46.9647 26.8759 46.9274 27.6981L48.4259 27.7622ZM40.8222 39.5639L40.8074 38.0641C39.9897 38.0743 39.3291 38.7375 39.3221 39.5551C39.3151 40.3727 39.9643 41.0435 40.7817 41.0633L40.8222 39.5639ZM47.8669 48.5009L46.367 48.4823C46.3546 49.3072 47.0106 49.9854 47.8354 50.0006C48.6603 50.0157 49.3443 49.362 49.3665 48.5373L47.8669 48.5009ZM58.776 41.5001C59.6042 41.5202 60.2936 40.8652 60.3159 40.037C60.3383 39.2089 59.685 38.5213 58.8568 38.5012L58.8164 40.0006L58.776 41.5001ZM48.4259 27.7622L46.9274 27.6981C46.8035 30.4245 46.6061 32.4615 46.3156 33.9874C46.0225 35.5265 45.6559 36.4244 45.2743 36.9639C44.6499 37.8469 43.7534 38.1154 41.1985 38.0714L41.1687 39.5711L41.1389 41.0708C43.6205 41.1135 46.1025 40.9822 47.7224 38.6914C48.4631 37.6441 48.9351 36.2616 49.2628 34.5408C49.5929 32.8069 49.7982 30.6046 49.9245 27.8263L48.4259 27.7622ZM41.1687 39.5711L41.1985 38.0714C41.0888 38.0696 40.9768 38.0672 40.8626 38.0644L40.8222 39.5639L40.7817 41.0633C40.9019 41.0662 41.021 41.0688 41.1389 41.0708L41.1687 39.5711ZM40.8222 39.5639L40.837 41.0636C40.914 41.0627 40.997 41.0642 41.0855 41.0689L41.1687 39.5711L41.2519 38.0733C41.1003 38.0653 40.9519 38.0623 40.8074 38.0641L40.8222 39.5639ZM41.1687 39.5711L41.0855 41.0689C42.0435 41.1196 43.3877 41.516 44.4622 42.5583C45.4983 43.5633 46.4322 45.3124 46.3696 48.3705L47.8694 48.3972L49.3692 48.4239C49.446 44.6732 48.2788 42.0753 46.5543 40.4025C44.8682 38.767 42.7924 38.1548 41.2519 38.0733L41.1687 39.5711ZM47.8694 48.3972L46.3696 48.3705C46.369 48.4017 46.3682 48.4331 46.3674 48.4645L47.8669 48.5009L49.3665 48.5373C49.3675 48.4994 49.3684 48.4616 49.3692 48.4239L47.8694 48.3972ZM47.8669 48.5009L49.3669 48.5195C49.3673 48.494 49.3679 48.468 49.3687 48.4415L47.8694 48.3972L46.3701 48.3529C46.3687 48.3963 46.3677 48.4395 46.367 48.4823L47.8669 48.5009ZM47.8694 48.3972L49.3687 48.4415C49.4064 47.2723 49.8957 45.4901 51.2616 44.0414C52.5836 42.6393 54.863 41.4051 58.776 41.5001L58.8164 40.0006L58.8568 38.5012C54.2172 38.3886 51.0707 39.8766 49.0811 41.9868C47.1355 44.0503 46.4276 46.5702 46.3701 48.3529L47.8694 48.3972ZM58.8164 40.0006L58.8568 38.5012C56.5448 38.4451 54.9921 38.5142 53.5973 38.4264C52.2581 38.342 51.6127 38.121 51.2163 37.7856C50.8363 37.4641 50.4214 36.8074 50.1613 35.175C49.9023 33.5494 49.8336 31.2064 49.9255 27.7986L48.4259 27.7622L46.9264 27.7258C46.8339 31.1564 46.8927 33.7362 47.1985 35.6547C47.5031 37.5665 48.0901 39.0754 49.2747 40.0777C50.4429 41.0661 51.9247 41.3272 53.4006 41.4202C54.821 41.5097 56.7715 41.4514 58.776 41.5001L58.8164 40.0006Z" fill="#810F09"/>
<defs>
<linearGradient id="paint0_linear_254_51" x1="47.3701" y1="75.1009" x2="54.6822" y2="21.1243" gradientUnits="userSpaceOnUse">
<stop stop-color="#FFFCF8"/>
<stop offset="0.355769" stop-color="#87D5D6"/>
<stop offset="0.701923" stop-color="#FC6CF3"/>
<stop offset="1" stop-color="#D4A7D1"/>
</linearGradient>
<linearGradient id="paint1_linear_254_51" x1="53.7485" y1="78.0305" x2="64.9372" y2="25.3523" gradientUnits="userSpaceOnUse">
<stop stop-color="#FA6124"/>
<stop offset="1" stop-color="#FB983C"/>
</linearGradient>
</defs>
</svg>
