<svg width="16" height="16" viewBox="0 0 16 16" fill="none" xmlns="http://www.w3.org/2000/svg">
<rect width="16" height="15.7676" rx="7.88379" fill="white"/>
<path d="M1.86395 8.89453C2.29832 11.4651 4.35905 13.489 6.97319 13.916V14.7676C3.88671 14.3265 1.44874 11.9294 1 8.89453H1.86395ZM15 8.89453C14.5513 11.9294 12.1133 14.3265 9.02681 14.7676V13.916C11.641 13.489 13.7017 11.4651 14.136 8.89453H15ZM6.97319 1.85059C4.35865 2.27757 2.29814 4.30414 1.86395 6.875H1C1.44856 3.83976 3.8865 1.4411 6.97319 1V1.85059ZM9.02681 1C12.1135 1.4411 14.5514 3.83976 15 6.875H14.136C13.7019 4.30414 11.6414 2.27757 9.02681 1.85059V1Z" fill="#28BE46"/>
<path fill-rule="evenodd" clip-rule="evenodd" d="M7.15948 6.25923C7.25842 6.27794 7.34942 6.32405 7.42076 6.39179C7.49215 6.45959 7.54063 6.54642 7.56033 6.64047C7.57996 6.73443 7.57007 6.83202 7.53147 6.92054C7.49283 7.00906 7.427 7.08457 7.34311 7.13782C7.25921 7.19103 7.16069 7.21954 7.05979 7.21954C6.92443 7.21954 6.79454 7.16843 6.69882 7.07752C6.60315 6.98661 6.54929 6.86319 6.54929 6.73465C6.54932 6.63886 6.57932 6.54521 6.63533 6.46555C6.69142 6.38582 6.77135 6.32383 6.86461 6.28714C6.95787 6.25046 7.06048 6.24053 7.15948 6.25923ZM7.28383 7.0531L7.3195 7.02768C7.32253 7.02526 7.32496 7.02221 7.3279 7.01971C7.31392 7.03158 7.29954 7.04312 7.28383 7.0531ZM6.67888 6.61007C6.67805 6.61235 6.67757 6.61474 6.67678 6.61704C6.6821 6.60142 6.68826 6.58607 6.69567 6.57119L6.67888 6.61007ZM6.81582 6.43016C6.81264 6.43245 6.80948 6.43476 6.80638 6.43714C6.82094 6.42596 6.83645 6.41592 6.85255 6.40674L6.81582 6.43016Z" fill="#28BE46"/>
<path fill-rule="evenodd" clip-rule="evenodd" d="M9.0399 6.25923C9.13883 6.27794 9.22984 6.32405 9.30118 6.39179C9.37256 6.45959 9.42105 6.54642 9.44074 6.64047C9.46037 6.73444 9.45049 6.83202 9.41189 6.92054C9.37325 7.00906 9.30742 7.08457 9.22353 7.13782C9.13963 7.19103 9.0411 7.21954 8.94021 7.21954C8.80484 7.21954 8.67495 7.16843 8.57924 7.07752C8.48357 6.98661 8.42971 6.86319 8.42971 6.73465C8.42973 6.63886 8.45974 6.54521 8.51575 6.46555C8.57183 6.38582 8.65177 6.32383 8.74503 6.28714C8.83829 6.25046 8.9409 6.24053 9.0399 6.25923ZM9.16424 7.0531L9.19992 7.02768C9.20294 7.02526 9.20537 7.02221 9.20832 7.01971C9.19434 7.03158 9.17996 7.04312 9.16424 7.0531ZM8.5593 6.61007C8.55847 6.61235 8.55799 6.61474 8.5572 6.61704C8.56252 6.60142 8.56868 6.58607 8.57609 6.57119L8.5593 6.61007ZM8.69624 6.43016C8.69306 6.43245 8.6899 6.43476 8.68679 6.43714C8.70135 6.42596 8.71686 6.41592 8.73296 6.40674L8.69624 6.43016Z" fill="#28BE46"/>
<path fill-rule="evenodd" clip-rule="evenodd" d="M10.4177 4.5C10.5174 4.5 10.6131 4.53718 10.6837 4.60327C10.7542 4.66937 10.7938 4.75913 10.7939 4.85261C10.7939 4.9461 10.7542 5.03581 10.6837 5.10194L10.2912 5.4693C10.7871 5.99253 11.0629 6.66842 11.0625 7.37052V8.62948C11.0625 9.39076 10.7396 10.1212 10.1653 10.6595C9.59102 11.1977 8.81211 11.5 8 11.5C7.18789 11.5 6.40898 11.1977 5.83469 10.6595C5.26038 10.1212 4.9375 9.39076 4.9375 8.62948V7.37052C4.9371 6.66853 5.21254 5.9925 5.70824 5.4693L5.31631 5.10194C5.2458 5.03581 5.20613 4.9461 5.20613 4.85261C5.20617 4.75913 5.24579 4.66938 5.31631 4.60327C5.35123 4.57056 5.39295 4.54476 5.43856 4.52705C5.48416 4.50936 5.53297 4.5 5.58232 4.5C5.63167 4.5 5.68047 4.50936 5.72608 4.52705C5.77169 4.54476 5.81341 4.57056 5.84833 4.60327L6.27279 5.00162C6.78078 4.6754 7.38279 4.50049 8 4.50049C8.61706 4.50049 9.21877 4.67555 9.72669 5.00162L10.1517 4.60327C10.2222 4.53718 10.3179 4.5 10.4177 4.5ZM5.69009 8.62948C5.69077 9.20358 5.93415 9.75393 6.36723 10.1599C6.80032 10.5658 7.38751 10.7941 8 10.7948C8.61249 10.7941 9.19967 10.5658 9.63277 10.1599C10.0659 9.75393 10.3094 9.20358 10.3101 8.62948V8.22671H5.69009V8.62948ZM10.244 10.4304C10.1946 10.4844 10.1433 10.5376 10.0892 10.5882L10.1905 10.4889C10.2089 10.4698 10.2262 10.4499 10.244 10.4304ZM7.88562 5.20816C7.31484 5.23526 6.77328 5.45954 6.36723 5.8401C5.9341 6.24608 5.69077 6.79688 5.69009 7.37101V7.5215H10.3101V7.37101L10.3075 7.26331C10.2786 6.72832 10.0388 6.22068 9.63277 5.8401C9.19968 5.4342 8.61245 5.20588 8 5.20521L7.88562 5.20816ZM5.32943 4.93768C5.33038 4.94018 5.33154 4.9426 5.33258 4.94506C5.32675 4.93121 5.32208 4.91694 5.31894 4.90228L5.32943 4.93768ZM5.3394 4.74491C5.33819 4.7473 5.33738 4.74986 5.33625 4.75228C5.3426 4.73863 5.34995 4.72539 5.35881 4.71294L5.3394 4.74491Z" fill="#28BE46"/>
</svg>
