<svg width="286" height="64" viewBox="0 0 286 64" fill="none" xmlns="http://www.w3.org/2000/svg">
<g opacity="0.25">
<path d="M-11.2285 -5.53778L2.30657 -7.68153L27.4402 33.6901L28.1557 33.5768L39.2747 -13.5367L52.8099 -15.6805L62.4803 45.3766L51.8669 47.0576L45.2232 5.1107L44.6567 5.20041L34.398 49.6411L26.4677 50.8971L2.96393 11.7122L2.39748 11.8019L9.05539 53.8383L-1.55805 55.5193L-11.2285 -5.53778ZM124.247 4.29931C125.289 10.8781 124.95 16.7079 123.228 21.7888C121.523 26.8467 118.751 30.9531 114.911 34.1081C111.091 37.2599 106.507 39.2592 101.161 40.106C95.8143 40.9528 90.8276 40.4692 86.2007 38.6553C81.5905 36.8184 77.6832 33.7597 74.4789 29.4794C71.2913 25.176 69.1781 19.7448 68.1393 13.186C67.0973 6.60723 67.4288 0.788902 69.1337 -4.269C70.8553 -9.34993 73.6262 -13.4663 77.4463 -16.6181C81.2862 -19.773 85.8794 -21.7739 91.2259 -22.6207C96.5724 -23.4675 101.549 -22.9823 106.156 -21.1653C110.783 -19.3514 114.69 -16.2927 117.878 -11.9893C121.082 -7.70898 123.205 -2.27943 124.247 4.29931ZM113.127 6.06059C112.394 1.42963 111.05 -2.36098 109.095 -5.31123C107.157 -8.28451 104.787 -10.3846 101.985 -11.6114C99.1797 -12.8581 96.1175 -13.2186 92.7983 -12.6929C89.4791 -12.1672 86.6781 -10.8781 84.3954 -8.82548C82.1095 -6.79276 80.4945 -4.06154 79.5504 -0.63181C78.623 2.7749 78.5261 6.79374 79.2596 11.4247C79.993 16.0557 81.3287 19.8578 83.2665 22.8311C85.2211 25.7813 87.601 27.8798 90.4064 29.1265C93.2086 30.3534 96.2692 30.7039 99.5884 30.1782C102.908 29.6525 105.71 28.3733 107.996 26.3406C110.279 24.288 111.884 21.5583 112.811 18.1516C113.755 14.7219 113.861 10.6915 113.127 6.06059ZM139.54 33.1716L129.869 -27.8854L153.243 -31.5874C157.655 -32.2863 161.432 -32.1714 164.574 -31.2429C167.733 -30.3374 170.227 -28.807 172.055 -26.6518C173.904 -24.4997 175.067 -21.9131 175.546 -18.8921C175.939 -16.4076 175.799 -14.2054 175.125 -12.2854C174.448 -10.3853 173.391 -8.76116 171.955 -7.41303C170.518 -6.06491 168.843 -4.99494 166.931 -4.20314L167.026 -3.60688C169.211 -3.83075 171.394 -3.49389 173.573 -2.59628C175.769 -1.72171 177.677 -0.292006 179.295 1.69282C180.913 3.67764 181.968 6.22032 182.459 9.32088C182.96 12.4811 182.645 15.4444 181.514 18.211C180.38 20.9577 178.388 23.3004 175.537 25.2393C172.686 27.1781 168.925 28.5174 164.255 29.2572L139.54 33.1716ZM149.136 22.1778L161.032 20.2937C165.047 19.6578 167.817 18.4346 169.344 16.624C170.887 14.7905 171.467 12.6613 171.083 10.2365C170.796 8.42781 170.091 6.86886 168.967 5.55962C167.839 4.2305 166.385 3.27919 164.603 2.70571C162.818 2.11235 160.782 1.99668 158.497 2.35869L146.303 4.28996L149.136 22.1778ZM145.043 -3.67013L155.984 -5.40307C157.892 -5.70527 159.556 -6.32539 160.976 -7.26342C162.393 -8.22133 163.437 -9.41548 164.107 -10.8459C164.793 -12.2993 164.995 -13.9204 164.712 -15.7092C164.337 -18.0744 163.194 -19.8899 161.282 -21.1559C159.39 -22.425 156.814 -22.8015 153.555 -22.2852L142.375 -20.5145L145.043 -3.67013ZM196.106 -38.3764L205.777 22.6807L194.716 24.4326L185.046 -36.6245L196.106 -38.3764ZM217.754 20.7837L208.084 -40.2734L219.144 -42.0252L227.346 9.76L254.238 5.50083L255.706 14.7727L217.754 20.7837ZM265.306 13.2522L255.635 -47.8049L295.346 -54.0945L296.815 -44.8226L268.165 -40.2848L270.79 -23.7088L297.383 -27.9208L298.852 -18.6489L272.258 -14.4369L274.898 2.22854L303.787 -2.347L305.255 6.92485L265.306 13.2522Z" fill="#F0F2F5"/>
<path d="M100.97 47.5297L111.321 45.8904L130.541 77.5275L131.088 77.4409L139.591 41.4129L149.941 39.7736L157.336 86.4643L149.22 87.7498L144.139 55.6727L143.706 55.7413L135.861 89.7253L129.797 90.6858L111.824 60.7209L111.39 60.7895L116.482 92.935L108.366 94.2205L100.97 47.5297ZM204.57 55.0522C205.367 60.083 205.107 64.5411 203.79 68.4266C202.486 72.2944 200.366 75.4346 197.43 77.8472C194.509 80.2574 191.004 81.7862 186.915 82.4338C182.827 83.0813 179.013 82.7115 175.475 81.3244C171.95 79.9197 168.962 77.5808 166.511 74.3075C164.074 71.0167 162.458 66.8635 161.664 61.8479C160.867 56.8171 161.12 52.3678 162.424 48.5C163.74 44.6146 165.859 41.4668 168.781 39.0566C171.717 36.644 175.23 35.1139 179.318 34.4663C183.406 33.8188 187.212 34.1898 190.735 35.5793C194.274 36.9664 197.261 39.3054 199.699 42.5962C202.149 45.8694 203.773 50.0214 204.57 55.0522ZM196.066 56.3991C195.505 52.8578 194.477 49.9591 192.983 47.703C191.501 45.4293 189.688 43.8234 187.546 42.8852C185.4 41.9318 183.059 41.6561 180.52 42.0582C177.982 42.4602 175.84 43.446 174.095 45.0156C172.347 46.57 171.112 48.6586 170.39 51.2814C169.681 53.8865 169.606 56.9597 170.167 60.501C170.728 64.0424 171.75 66.9499 173.231 69.2235C174.726 71.4796 176.546 73.0844 178.691 74.0377C180.834 74.9759 183.175 75.244 185.713 74.842C188.251 74.44 190.394 73.4617 192.142 71.9073C193.888 70.3377 195.115 68.2503 195.824 65.6452C196.546 63.0224 196.627 59.9404 196.066 56.3991ZM216.264 77.1311L208.869 30.4403L226.742 27.6094C230.117 27.075 233.005 27.1628 235.408 27.8729C237.823 28.5653 239.73 29.7356 241.129 31.3837C242.542 33.0294 243.432 35.0074 243.798 37.3176C244.099 39.2175 243.992 40.9015 243.476 42.3698C242.959 43.8228 242.15 45.0648 241.052 46.0957C239.953 47.1266 238.673 47.9448 237.21 48.5503L237.283 49.0063C238.954 48.8351 240.623 49.0927 242.289 49.7791C243.969 50.4479 245.427 51.5412 246.665 53.059C247.902 54.5768 248.709 56.5212 249.085 58.8922C249.467 61.3089 249.226 63.575 248.362 65.6906C247.495 67.791 245.971 69.5825 243.791 71.0651C241.611 72.5478 238.735 73.5719 235.163 74.1376L216.264 77.1311ZM223.603 68.724L232.699 67.2832C235.769 66.797 237.888 65.8616 239.055 64.477C240.235 63.0749 240.679 61.4466 240.385 59.5924C240.166 58.2093 239.626 57.0172 238.767 56.016C237.905 54.9996 236.792 54.2721 235.43 53.8336C234.065 53.3798 232.508 53.2914 230.76 53.5682L221.436 55.0451L223.603 68.724ZM220.472 48.9579L228.839 47.6327C230.298 47.4017 231.57 46.9274 232.657 46.2101C233.74 45.4776 234.538 44.5644 235.05 43.4706C235.575 42.3591 235.73 41.1195 235.513 39.7516C235.227 37.9429 234.352 36.5545 232.89 35.5864C231.443 34.6159 229.474 34.3281 226.981 34.7229L218.432 36.077L220.472 48.9579ZM259.521 22.4179L266.916 69.1086L258.458 70.4482L251.062 23.7575L259.521 22.4179ZM276.075 67.6579L268.68 20.9672L277.138 19.6276L283.41 59.228L303.974 55.971L305.097 63.0613L276.075 67.6579ZM312.438 61.8986L305.043 15.2078L335.41 10.3981L336.533 17.4884L314.624 20.9584L316.632 33.6342L336.968 30.4133L338.091 37.5036L317.755 40.7245L319.773 53.4687L341.865 49.9697L342.988 57.06L312.438 61.8986Z" fill="#F0F2F5"/>
<path d="M-148.03 86.5297L-137.679 84.8904L-118.459 116.528L-117.912 116.441L-109.409 80.4129L-99.059 78.7736L-91.6639 125.464L-99.78 126.75L-104.861 94.6727L-105.294 94.7413L-113.139 128.725L-119.203 129.686L-137.176 99.7209L-137.61 99.7895L-132.518 131.935L-140.634 133.22L-148.03 86.5297ZM-44.4302 94.0522C-43.6334 99.083 -43.8933 103.541 -45.2099 107.427C-46.5136 111.294 -48.6337 114.435 -51.5701 116.847C-54.4914 119.257 -57.9962 120.786 -62.0847 121.434C-66.1732 122.081 -69.9865 121.712 -73.5248 120.324C-77.0503 118.92 -80.0382 116.581 -82.4885 113.308C-84.9261 110.017 -86.5421 105.864 -87.3365 100.848C-88.1333 95.8171 -87.8798 91.3678 -86.576 87.5C-85.2595 83.6146 -83.1406 80.4668 -80.2194 78.0566C-77.2829 75.644 -73.7705 74.1139 -69.682 73.4663C-65.5935 72.8188 -61.7878 73.1898 -58.2647 74.5793C-54.7265 75.9664 -51.7385 78.3054 -49.301 81.5962C-46.8506 84.8694 -45.227 89.0214 -44.4302 94.0522ZM-52.934 95.3991C-53.4949 91.8578 -54.5226 88.9591 -56.0173 86.703C-57.4992 84.4293 -59.3116 82.8234 -61.4544 81.8852C-63.5997 80.9318 -65.9414 80.6561 -68.4796 81.0582C-71.0178 81.4602 -73.1597 82.446 -74.9053 84.0156C-76.6534 85.57 -77.8884 87.6586 -78.6103 90.2814C-79.3195 92.8865 -79.3936 95.9597 -78.8327 99.501C-78.2718 103.042 -77.2505 105.95 -75.7686 108.224C-74.2739 110.48 -72.4539 112.084 -70.3087 113.038C-68.1659 113.976 -65.8253 114.244 -63.2871 113.842C-60.7489 113.44 -58.6058 112.462 -56.8578 110.907C-55.1121 109.338 -53.8847 107.25 -53.1756 104.645C-52.4536 102.022 -52.3731 98.9404 -52.934 95.3991ZM-32.7362 116.131L-40.1313 69.4403L-22.2575 66.6094C-18.8834 66.075 -15.995 66.1628 -13.5922 66.8729C-11.1767 67.5653 -9.26975 68.7356 -7.87136 70.3837C-6.45778 72.0294 -5.56804 74.0074 -5.20214 76.3176C-4.90123 78.2175 -5.00842 79.9015 -5.52372 81.3698C-6.04142 82.8228 -6.84963 84.0648 -7.94834 85.0957C-9.04704 86.1266 -10.3274 86.9448 -11.7895 87.5503L-11.7173 88.0063C-10.0462 87.8351 -8.3773 88.0927 -6.71058 88.7791C-5.03106 89.4479 -3.57255 90.5412 -2.33503 92.059C-1.0975 93.5768 -0.290975 95.5212 0.0845565 97.8922C0.46731 100.309 0.226393 102.575 -0.638193 104.691C-1.50519 106.791 -3.02873 108.582 -5.20881 110.065C-7.3889 111.548 -10.2648 112.572 -13.8365 113.138L-32.7362 116.131ZM-25.3975 107.724L-16.301 106.283C-13.2308 105.797 -11.1121 104.862 -9.94475 103.477C-8.76462 102.075 -8.3214 100.447 -8.61508 98.5924C-8.83414 97.2093 -9.37351 96.0172 -10.2332 95.016C-11.0953 93.9996 -12.2076 93.2721 -13.5702 92.8336C-14.9352 92.3798 -16.4917 92.2914 -18.2395 92.5682L-27.564 94.0451L-25.3975 107.724ZM-28.5281 87.9579L-20.1612 86.6327C-18.7021 86.4017 -17.4295 85.9274 -16.3435 85.2101C-15.2598 84.4776 -14.4618 83.5644 -13.9496 82.4706C-13.4245 81.3591 -13.2703 80.1195 -13.4869 78.7516C-13.7734 76.9429 -14.6477 75.5545 -16.1097 74.5864C-17.5566 73.6159 -19.5263 73.3281 -22.0189 73.7229L-30.5683 75.077L-28.5281 87.9579ZM10.5206 61.4179L17.9157 108.109L9.45755 109.448L2.06246 62.7575L10.5206 61.4179ZM27.0749 106.658L19.6798 59.9672L28.1379 58.6276L34.41 98.228L54.974 94.971L56.097 102.061L27.0749 106.658ZM63.438 100.899L56.0429 54.2078L86.4101 49.3981L87.5331 56.4884L65.624 59.9584L67.6317 72.6342L87.9677 69.4133L89.0907 76.5036L68.7547 79.7245L70.7731 92.4687L92.8646 88.9697L93.9876 96.06L63.438 100.899Z" fill="#F0F2F5"/>
</g>
</svg>
