<svg width="136" height="266" viewBox="0 0 136 266" fill="none" xmlns="http://www.w3.org/2000/svg">
<path d="M2.47461 262.604L43.8512 223.513C45.7099 221.757 48.5454 221.546 50.6442 223.006L71.8755 237.782C73.9399 239.218 76.7228 239.039 78.5864 237.35L133.475 187.604M2.47461 110.604L43.8512 71.5134C45.7099 69.7574 48.5454 69.5457 50.6442 71.0063L71.8755 85.7816C73.9399 87.2182 76.7228 87.0395 78.5864 85.3504L133.475 35.6045M84.4746 175.104C84.4746 185.874 75.5203 194.604 64.4746 194.604C53.4289 194.604 44.4746 185.874 44.4746 175.104C44.4746 164.335 53.4289 155.604 64.4746 155.604C75.5203 155.604 84.4746 164.335 84.4746 175.104ZM84.4746 23.6045C84.4746 34.6502 75.5203 43.6045 64.4746 43.6045C53.4289 43.6045 44.4746 34.6502 44.4746 23.6045C44.4746 12.5588 53.4289 3.60449 64.4746 3.60449C75.5203 3.60449 84.4746 12.5588 84.4746 23.6045Z" stroke="white" stroke-width="7.209"/>
</svg>
