<svg width="14" height="14" viewBox="0 0 14 14" fill="none" xmlns="http://www.w3.org/2000/svg">
<path d="M13.769 13.2839L9.63917 9.10227C10.5291 8.13542 11.0759 6.85673 11.0759 5.44967C11.0754 2.43971 8.59622 0 5.53772 0C2.47922 0 0 2.43971 0 5.44967C0 8.45963 2.47922 10.8993 5.53772 10.8993C6.8592 10.8993 8.07124 10.4423 9.02328 9.68236L13.1663 13.8772C13.3325 14.0409 13.6024 14.0409 13.7686 13.8772C13.8081 13.8386 13.8396 13.7925 13.861 13.7415C13.8825 13.6906 13.8936 13.6359 13.8936 13.5806C13.8936 13.5254 13.8826 13.4707 13.8612 13.4197C13.8398 13.3688 13.8085 13.3226 13.769 13.2839ZM5.53772 10.0609C2.94989 10.0609 0.852056 7.99637 0.852056 5.44967C0.852056 2.90296 2.94989 0.838464 5.53772 0.838464C8.12557 0.838464 10.2234 2.90296 10.2234 5.44967C10.2234 7.99637 8.12557 10.0609 5.53772 10.0609Z" fill="#323541" fill-opacity="0.6"/>
</svg>
