<svg width="28" height="28" viewBox="0 0 28 28" fill="none" xmlns="http://www.w3.org/2000/svg">
<path fill-rule="evenodd" clip-rule="evenodd" d="M14 28C21.732 28 28 21.732 28 14C28 6.26802 21.732 0 14 0C6.26802 0 0 6.26802 0 14C0 21.732 6.26802 28 14 28Z" fill="#454754"/>
<path fill-rule="evenodd" clip-rule="evenodd" d="M11.4403 6.52333C11.4403 5.95823 11.8994 5.5001 12.4656 5.5001C16.3038 5.5001 19.4152 8.60508 19.4152 12.4352C19.4152 13.0004 18.9561 13.4585 18.3899 13.4585C17.8236 13.4585 17.3645 13.0004 17.3645 12.4352C17.3645 9.73528 15.1712 7.54655 12.4656 7.54655C11.8994 7.54655 11.4403 7.08843 11.4403 6.52333Z" fill="#E7E9EF"/>
<path fill-rule="evenodd" clip-rule="evenodd" d="M21.4747 11.412C22.041 11.412 22.5001 11.8701 22.5001 12.4352C22.5001 16.2654 19.3887 19.3704 15.5505 19.3704C14.9843 19.3704 14.5252 18.9122 14.5252 18.3471C14.5252 17.782 14.9843 17.3239 15.5505 17.3239C18.2561 17.3239 20.4494 15.1352 20.4494 12.4352C20.4494 11.8701 20.9085 11.412 21.4747 11.412Z" fill="#E7E9EF"/>
<path fill-rule="evenodd" clip-rule="evenodd" d="M16.5757 21.4768C16.5757 22.0419 16.1166 22.5 15.5503 22.5C11.7122 22.5 8.60079 19.3951 8.60079 15.5649C8.60079 14.9998 9.05986 14.5417 9.62614 14.5417C10.1924 14.5417 10.6515 14.9998 10.6515 15.5649C10.6515 18.2649 12.8448 20.4536 15.5503 20.4536C16.1166 20.4536 16.5757 20.9117 16.5757 21.4768Z" fill="#E7E9EF"/>
<path fill-rule="evenodd" clip-rule="evenodd" d="M6.52545 16.5881C5.95918 16.5881 5.5001 16.13 5.5001 15.5649C5.5001 11.7347 8.61153 8.62978 12.4497 8.62978C13.0159 8.62978 13.475 9.08788 13.475 9.65298C13.475 10.2181 13.0159 10.6762 12.4497 10.6762C9.7441 10.6762 7.5508 12.865 7.5508 15.5649C7.5508 16.13 7.09173 16.5881 6.52545 16.5881Z" fill="#E7E9EF"/>
</svg>
